<svg xmlns="http://www.w3.org/2000/svg" xmlns:xlink="http://www.w3.org/1999/xlink" width="2048" zoomAndPan="magnify" viewBox="0 0 1536 1535.999932" height="2048" preserveAspectRatio="xMidYMid meet" version="1.0"><defs><clipPath id="57a3ee1265"><path d="M 102 1006 L 462 1006 L 462 1414.617188 L 102 1414.617188 Z M 102 1006 " clip-rule="nonzero"/></clipPath><clipPath id="ab80cfb258"><path d="M 65.386719 444 L 282 444 L 282 901 L 65.386719 901 Z M 65.386719 444 " clip-rule="nonzero"/></clipPath><clipPath id="8c656fc473"><path d="M 1068 1006 L 1428 1006 L 1428 1414.617188 L 1068 1414.617188 Z M 1068 1006 " clip-rule="nonzero"/></clipPath></defs><path fill="#72bef4" d="M 702.789062 250.425781 L 688.871094 123.378906 C 524.785156 141.148438 377.675781 215.539062 267.515625 326.613281 L 358.292969 416.582031 C 448.347656 325.75 568.621094 264.949219 702.789062 250.402344 Z M 702.789062 250.425781 " fill-opacity="1" fill-rule="nonzero"/><g clip-path="url(#57a3ee1265)"><path fill="#72bef4" d="M 223.492188 1006.835938 L 102.660156 1048.5625 C 155.414062 1201.316406 259.503906 1330.113281 394.328125 1414.359375 L 461.960938 1305.921875 C 351.730469 1237.039062 266.628906 1131.734375 223.492188 1006.859375 Z M 223.492188 1006.835938 " fill-opacity="1" fill-rule="nonzero"/></g><g clip-path="url(#ab80cfb258)"><path fill="#72bef4" d="M 192.222656 819.851562 C 192.222656 707.097656 224.824219 601.953125 281.109375 513.320312 L 173.117188 444.925781 C 104.292969 553.339844 64.40625 681.925781 64.40625 819.851562 C 64.40625 847.289062 66.039062 874.351562 69.097656 900.992188 L 196.050781 886.1875 C 193.554688 864.425781 192.199219 842.292969 192.199219 819.851562 Z M 192.222656 819.851562 " fill-opacity="1" fill-rule="nonzero"/></g><path fill="#72bef4" d="M 1262.800781 326.613281 C 1152.636719 215.539062 1005.554688 141.148438 841.445312 123.378906 L 827.523438 250.425781 C 961.695312 264.949219 1081.96875 325.773438 1172.023438 416.605469 L 1262.800781 326.636719 Z M 1262.800781 326.613281 " fill-opacity="1" fill-rule="nonzero"/><path fill="#df4e4e" d="M 1202.898438 970.972656 C 1213.640625 939.847656 1221.160156 907.203125 1225.058594 873.464844 C 1227.089844 855.882812 1228.164062 837.996094 1228.164062 819.851562 C 1228.164062 728.71875 1201.824219 643.773438 1156.328125 572.136719 C 1138.371094 543.859375 1117.445312 517.660156 1093.949219 493.984375 C 1021.179688 420.574219 923.976562 371.445312 815.542969 359.703125 C 798.988281 357.902344 782.171875 356.96875 765.144531 356.96875 C 748.121094 356.96875 731.304688 357.925781 714.75 359.703125 C 606.316406 371.445312 509.136719 420.597656 436.34375 493.984375 C 412.871094 517.660156 391.921875 543.859375 373.964844 572.136719 C 328.492188 643.773438 302.125 728.742188 302.125 819.851562 C 302.125 837.996094 303.199219 855.859375 305.234375 873.464844 C 309.132812 907.203125 316.628906 939.847656 327.394531 970.972656 C 362.242188 1071.890625 431.019531 1157 520.113281 1212.664062 L 640.316406 1019.960938 C 594.941406 991.589844 559.933594 948.253906 542.160156 896.835938 C 536.671875 880.980469 532.84375 864.355469 530.855469 847.171875 C 529.828125 838.207031 529.222656 829.097656 529.222656 819.875 C 529.222656 773.457031 542.699219 730.191406 565.867188 693.695312 C 575.019531 679.289062 585.644531 665.910156 597.605469 653.859375 C 634.691406 616.453125 684.199219 591.445312 739.433594 585.445312 C 747.863281 584.535156 756.433594 584.019531 765.101562 584.019531 C 773.765625 584.019531 782.335938 584.535156 790.765625 585.445312 C 846 591.421875 895.507812 616.453125 932.597656 653.859375 C 944.554688 665.933594 955.179688 679.289062 964.335938 693.695312 C 987.5 730.191406 1000.976562 773.457031 1000.976562 819.875 C 1000.976562 829.121094 1000.394531 838.230469 999.34375 847.171875 C 997.355469 864.355469 993.527344 880.980469 988.039062 896.835938 C 970.289062 948.253906 935.257812 991.589844 889.882812 1019.960938 L 1010.085938 1212.664062 C 1099.15625 1157 1167.9375 1071.910156 1202.804688 970.972656 Z M 1202.898438 970.972656 " fill-opacity="1" fill-rule="nonzero"/><path fill="#72bef4" d="M 1357.199219 444.925781 L 1249.207031 513.320312 C 1305.492188 601.953125 1338.09375 707.097656 1338.09375 819.851562 C 1338.09375 842.292969 1336.761719 864.425781 1334.242188 886.1875 L 1461.195312 900.992188 C 1464.277344 874.375 1465.886719 847.3125 1465.886719 819.851562 C 1465.886719 681.925781 1426 553.339844 1357.175781 444.925781 Z M 1357.199219 444.925781 " fill-opacity="1" fill-rule="nonzero"/><g clip-path="url(#8c656fc473)"><path fill="#72bef4" d="M 1068.351562 1305.898438 L 1135.988281 1414.335938 C 1270.8125 1330.089844 1374.898438 1201.292969 1427.65625 1048.539062 L 1306.824219 1006.8125 C 1263.6875 1131.710938 1178.585938 1236.992188 1068.351562 1305.875 Z M 1068.351562 1305.898438 " fill-opacity="1" fill-rule="nonzero"/></g></svg>