<?xml version="1.0" standalone="no"?>
<!DOCTYPE svg PUBLIC "-//W3C//DTD SVG 20010904//EN"
 "http://www.w3.org/TR/2001/REC-SVG-20010904/DTD/svg10.dtd">
<svg version="1.0" xmlns="http://www.w3.org/2000/svg"
 width="700.000000pt" height="700.000000pt" viewBox="0 0 700.000000 700.000000"
 preserveAspectRatio="xMidYMid meet">
<metadata>
Created by potrace 1.14, written by Peter Selinger 2001-2017
</metadata>
<g transform="translate(0.000000,700.000000) scale(0.100000,-0.100000)"
fill="#000000" stroke="none">
<path d="M3335 6615 c-33 -7 -90 -24 -127 -38 -78 -30 -2127 -1219 -2211
-1285 -83 -63 -162 -162 -212 -267 -86 -179 -80 -64 -80 -1515 0 -1215 1
-1289 18 -1355 43 -164 153 -334 277 -431 71 -55 2103 -1238 2191 -1276 189
-80 420 -78 609 6 99 43 2109 1215 2180 1270 124 97 234 267 277 431 17 66 18
140 18 1360 l0 1290 -28 90 c-52 165 -151 313 -272 402 -36 26 -131 87 -212
134 -173 100 -1040 604 -1558 906 -198 115 -391 222 -428 237 -134 54 -311 70
-442 41z m238 -559 c51 -21 2049 -1186 2076 -1210 13 -11 34 -43 47 -71 l24
-50 0 -1210 c0 -833 -3 -1222 -11 -1249 -20 -72 -80 -116 -504 -361 -220 -127
-676 -392 -1013 -589 -648 -377 -671 -388 -751 -366 -49 13 -2073 1189 -2113
1227 -16 15 -37 45 -48 68 -20 41 -20 62 -20 1265 0 1203 0 1224 20 1265 11
23 32 53 47 67 16 15 424 257 908 539 1311 763 1178 689 1247 689 32 0 73 -6
91 -14z"/>
<path d="M3368 5534 c-81 -19 -89 -24 -818 -447 -609 -354 -660 -386 -725
-452 -78 -78 -116 -141 -142 -236 -17 -59 -18 -131 -18 -889 0 -751 2 -831 17
-887 31 -110 94 -209 180 -279 66 -55 1401 -828 1468 -850 84 -29 255 -26 335
5 78 30 1392 794 1453 845 84 69 148 166 179 273 15 52 18 139 21 828 2 496 0
802 -7 860 -22 187 -107 322 -266 422 -88 54 -1269 740 -1324 768 -102 51
-240 67 -353 39z m277 -478 c623 -357 1213 -708 1230 -731 20 -26 20 -42 20
-815 0 -783 0 -789 -21 -817 -13 -18 -197 -131 -505 -310 l-484 -282 -117 697
c-64 383 -113 700 -110 703 4 3 27 14 51 23 105 41 219 142 281 250 98 171 90
415 -19 585 -75 117 -228 223 -359 250 -194 40 -381 -16 -523 -158 -180 -180
-220 -428 -108 -659 54 -111 182 -228 298 -273 33 -12 46 -23 44 -36 0 -10
-52 -323 -114 -695 -69 -417 -116 -678 -123 -677 -6 0 -224 125 -485 277 -300
175 -482 287 -495 305 -21 28 -21 33 -21 817 0 779 0 789 20 816 12 16 125 88
260 167 536 312 1051 611 1075 624 44 23 74 14 205 -61z"/>
</g>
</svg>
