<svg version="1.2" xmlns="http://www.w3.org/2000/svg" viewBox="0 0 1640 664" width="1640" height="664">
	<title>Nouveau projet</title>
	<style>
		.s0 { fill: #648fe4 } 
	</style>
	<path id="Text layer 3" class="s0" aria-label="Want to advertise ?"  d="m57.6 378l-30.1-120.3h16.4l25.3 101.7 25.2-101.7h18.3l25.3 101.7 25.2-101.7h16.5l-30.2 120.3h-20.4l-25.4-104.4-25.6 104.4zm188.3-45.4h-14.8q-18 0-24.9 4.1-6.9 4.2-6.9 14.1 0 7.9 5.1 12.5 5.3 4.6 14.2 4.6 12.4 0 19.8-8.7 7.5-8.8 7.5-23.3zm14.8-6.1v51.5h-14.8v-13.7q-5.1 8.2-12.7 12.2-7.6 3.8-18.5 3.8-13.9 0-22.1-7.7-8.1-7.8-8.1-20.9 0-15.2 10.1-22.9 10.2-7.8 30.5-7.8h20.8v-1.4q0-10.2-6.8-15.8-6.7-5.6-18.9-5.6-7.7 0-15 1.8-7.4 1.9-14.1 5.6v-13.7q8.1-3.2 15.8-4.7 7.6-1.6 14.9-1.6 19.5 0 29.2 10.1 9.7 10.2 9.7 30.8zm105.5-3v54.5h-14.8v-54q0-12.8-5-19.2-5-6.3-15-6.3-12 0-18.9 7.6-6.9 7.7-6.9 20.9v51h-14.9v-90.2h14.9v14q5.3-8.1 12.4-12.2 7.3-4 16.7-4 15.6 0 23.5 9.7 8 9.5 8 28.2zm29.4-61.4h14.9v25.7h30.5v11.5h-30.5v49q0 11 2.9 14.2 3.1 3.1 12.4 3.1h15.2v12.4h-15.2q-17.2 0-23.7-6.4-6.5-6.4-6.5-23.3v-49h-10.9v-11.5h10.9zm117.1 0h14.9v25.6h30.5v11.5h-30.5v49q0 11 3 14.2 3 3.1 12.3 3.1h15.2v12.4h-15.2q-17.2 0-23.7-6.3-6.5-6.5-6.5-23.4v-49h-10.9v-11.5h10.9zm99.9 36q-11.9 0-18.9 9.3-6.9 9.3-6.9 25.5 0 16.2 6.9 25.5 6.9 9.3 18.9 9.3 11.8 0 18.8-9.3 6.9-9.4 6.9-25.5 0-16-6.9-25.4-7-9.4-18.8-9.4zm0-12.6q19.3 0 30.4 12.6 11 12.6 11 34.8 0 22.2-11 34.8-11.1 12.6-30.4 12.6-19.4 0-30.5-12.6-10.9-12.6-10.9-34.8 0-22.2 10.9-34.8 11.1-12.6 30.5-12.6zm174.2 47.1h-14.8q-17.9 0-24.9 4.1-6.9 4.1-6.9 14 0 7.9 5.2 12.6 5.2 4.6 14.1 4.6 12.4 0 19.8-8.7 7.5-8.8 7.5-23.3zm14.8-6.1v51.4h-14.8v-13.6q-5.1 8.2-12.7 12.1-7.5 3.9-18.5 3.9-13.9 0-22.1-7.8-8.1-7.8-8.1-20.8 0-15.2 10.1-23 10.3-7.7 30.5-7.7h20.8v-1.5q0-10.2-6.8-15.8-6.7-5.6-18.8-5.6-7.8 0-15.1 1.9-7.3 1.8-14.1 5.5v-13.7q8.1-3.1 15.8-4.7 7.6-1.6 14.9-1.6 19.6 0 29.2 10.2 9.7 10.1 9.7 30.8zm89.9-25.1v-48.8h14.8v125.3h-14.8v-13.5q-4.7 8.1-11.8 12-7.1 3.9-17.1 3.9-16.4 0-26.7-13.1-10.2-13-10.2-34.3 0-21.3 10.2-34.3 10.3-13.1 26.7-13.1 10 0 17.1 4 7.1 3.9 11.8 11.9zm-50.5 31.5q0 16.4 6.7 25.7 6.8 9.3 18.5 9.3 11.8 0 18.5-9.3 6.8-9.3 6.8-25.7 0-16.3-6.8-25.6-6.7-9.4-18.5-9.4-11.7 0-18.5 9.4-6.7 9.3-6.7 25.6zm119.1 45l-33.9-90.2h15.8l28.1 75.7 28.2-75.7h15.8l-33.9 90.2zm151.6-48.8v7.3h-68.1q1 15.3 9.2 23.3 8.3 8 23 8 8.6 0 16.5-2.1 8.1-2.1 16-6.3v14.1q-8 3.3-16.4 5.1-8.4 1.8-17 1.8-21.6 0-34.2-12.6-12.6-12.6-12.6-34 0-22.1 11.9-35.1 12-13.1 32.3-13.1 18.3 0 28.8 11.8 10.6 11.7 10.6 31.8zm-67.6-4.2l52.8-0.1q-0.1-12.2-6.8-19.4-6.6-7.3-17.6-7.3-12.4 0-19.9 7-7.4 7-8.5 19.8zm144.2-38.6l0.1 15.3q-2.5-1.5-5.5-2.1-2.9-0.8-6.5-0.8-12.5 0-19.3 8.3-6.7 8.1-6.7 23.4v47.5h-14.9v-90.2h14.9v14q4.7-8.2 12.2-12.1 7.5-4.1 18.2-4.1 1.5 0 3.4 0.3 1.8 0.1 4.1 0.5zm15.4-24.2h14.9v25.6h30.5v11.5h-30.5v49q0 11.1 3 14.2 3 3.1 12.3 3.1h15.2v12.4h-15.2q-17.2 0-23.7-6.3-6.5-6.5-6.5-23.4v-49h-10.9v-11.5h10.9zm64.9 115.9v-90.3h14.8v90.3zm0-106.6v-18.8h14.9v18.8zm103.3 19v14q-6.3-3.2-13-4.8-6.8-1.6-14-1.6-11.1 0-16.6 3.3-5.5 3.4-5.5 10.2 0 5.2 3.9 8.1 4 2.9 15.9 5.6l5.1 1.1q15.8 3.4 22.4 9.6 6.7 6.1 6.7 17.2 0 12.5-10 19.9-9.9 7.3-27.3 7.3-7.3 0-15.2-1.4-7.8-1.4-16.5-4.2v-15.3q8.2 4.2 16.2 6.4 8 2.1 15.8 2.1 10.5 0 16.1-3.5 5.6-3.7 5.6-10.2 0-6-4.1-9.3-4-3.2-17.8-6.2l-5.1-1.2q-13.8-2.9-19.9-8.8-6.2-6.1-6.2-16.6 0-12.7 9.1-19.6 9-6.9 25.6-6.9 8.2 0 15.5 1.2 7.2 1.2 13.3 3.6zm105.6 38.7v7.3h-68.1q1 15.3 9.2 23.4 8.3 7.9 23 7.9 8.6 0 16.5-2.1 8.1-2.1 16-6.2v14q-8 3.4-16.4 5.1-8.4 1.8-17 1.8-21.6 0-34.2-12.6-12.6-12.5-12.6-34 0-22.1 11.9-35.1 12-13 32.4-13 18.2 0 28.7 11.7 10.6 11.7 10.6 31.8zm-67.6-4.2l52.8-0.1q-0.1-12.2-6.8-19.4-6.6-7.3-17.6-7.3-12.4 0-19.9 7-7.4 7-8.5 19.8zm160.4 53.1v-20.5h16.3v20.5zm15.9-42.3v10h-15.4v-12.4q0-8.2 2.3-13.4 2.2-5.3 9.5-12.2l7.2-7.2q4.6-4.2 6.6-8 2.1-3.8 2.1-7.7 0-7.2-5.3-11.7-5.2-4.4-13.9-4.4-6.4 0-13.6 2.8-7.2 2.9-15 8.3v-15.2q7.5-4.6 15.3-6.8 7.8-2.3 16.1-2.3 14.8 0 23.8 7.8 9 7.8 9 20.6 0 6.2-2.9 11.7-2.9 5.5-10.2 12.4l-7.1 7q-3.7 3.8-5.4 5.9-1.5 2.1-2.1 4.1-0.5 1.7-0.8 4.1-0.2 2.5-0.2 6.6z"/>
</svg>