<?xml version="1.0" encoding="UTF-8"?>
<svg version="1.1" xmlns="http://www.w3.org/2000/svg" width="1200" height="231">
<path d="M0 0 C2.22928143 1.19536771 2.22928143 1.19536771 5.171875 0.98828125 C5.501875 -0.99171875 5.831875 -2.97171875 6.171875 -5.01171875 C18.051875 -5.01171875 29.931875 -5.01171875 42.171875 -5.01171875 C42.2171714 10.39254312 42.25395076 25.79677158 42.27549934 41.20108223 C42.28577446 48.35494511 42.29976201 55.50876341 42.32275391 62.66259766 C42.34280391 68.90409467 42.35561872 75.14555937 42.36005199 81.3870877 C42.3626399 84.68628753 42.36972213 87.9853744 42.38333511 91.28454971 C42.48061809 115.85251001 42.19445847 138.90060737 24.41015625 157.890625 C9.44041624 171.91985778 -10.7829476 173.70911896 -30.33642578 173.12451172 C-40.7966905 172.55261012 -50.4405792 169.53273634 -59.828125 164.98828125 C-61.17970703 164.34246094 -61.17970703 164.34246094 -62.55859375 163.68359375 C-70.35513878 159.70094304 -77.03575927 154.45241012 -83.828125 148.98828125 C-82.46872363 145.853577 -81.03978224 144.05678557 -78.37890625 141.9296875 C-77.69505859 141.37861328 -77.01121094 140.82753906 -76.30664062 140.25976562 C-75.59185547 139.69580078 -74.87707031 139.13183594 -74.140625 138.55078125 C-73.44517578 137.99068359 -72.74972656 137.43058594 -72.03320312 136.85351562 C-67.73204727 133.41178773 -63.33823435 130.15067771 -58.828125 126.98828125 C-56.0359345 128.26127993 -54.06621549 129.59154475 -51.890625 131.73828125 C-43.15867729 139.46415672 -32.54735614 142.32602433 -21.2109375 142.19921875 C-12.65382348 141.66563427 -5.31516153 138.62803138 1.171875 132.98828125 C4.99233582 128.49237984 5.89006232 123.71847248 6.171875 117.98828125 C5.83687421 115.62134408 5.83687421 115.62134408 5.171875 113.98828125 C0.66002585 114.58713906 -3.17917832 115.77784718 -7.390625 117.48828125 C-22.55619794 123.63310703 -41.28973775 122.82104503 -56.26953125 116.546875 C-71.98035412 109.24227451 -84.17097827 97.9836565 -90.83203125 81.734375 C-91.16074219 80.82816406 -91.48945313 79.92195313 -91.828125 78.98828125 C-92.14652344 78.11300781 -92.46492187 77.23773438 -92.79296875 76.3359375 C-97.88029964 59.62042172 -95.65057492 41.14560056 -87.5546875 25.87109375 C-77.41351461 8.93854716 -62.60724475 -0.91597923 -43.828125 -6.01171875 C-28.76640659 -8.62329261 -13.67225072 -7.02256514 0 0 Z M-49.546875 37.05859375 C-54.62216468 44.19882972 -58.05231022 52.07158077 -56.828125 60.98828125 C-54.61291089 71.30989483 -49.8317158 78.85129925 -40.890625 84.67578125 C-33.29147857 89.46620826 -25.5954341 89.76737846 -16.828125 88.98828125 C-9.20826698 87.09746953 -2.39043365 82.11467904 1.74609375 75.453125 C6.23354905 66.72251713 7.87537155 57.94828144 5.48828125 48.1953125 C1.88574479 38.55366928 -3.73500291 31.8464695 -12.828125 26.98828125 C-25.93788075 21.83802006 -40.60848008 26.29189078 -49.546875 37.05859375 Z " fill="#3D823C" transform="translate(301.828125,45.01171875)"/>
<path d="M0 0 C1.64185485 0.87083116 1.64185485 0.87083116 3.63671875 0.734375 C3.63671875 -1.245625 3.63671875 -3.225625 3.63671875 -5.265625 C15.51671875 -5.265625 27.39671875 -5.265625 39.63671875 -5.265625 C39.96671875 34.994375 40.29671875 75.254375 40.63671875 116.734375 C35.41713545 117.38682291 30.89620061 117.85594668 25.73046875 117.83203125 C24.49296875 117.82880859 23.25546875 117.82558594 21.98046875 117.82226562 C20.71203125 117.81388672 19.44359375 117.80550781 18.13671875 117.796875 C16.83734375 117.79236328 15.53796875 117.78785156 14.19921875 117.78320312 C11.0116705 117.7714842 7.8242192 117.75507719 4.63671875 117.734375 C4.30671875 116.084375 3.97671875 114.434375 3.63671875 112.734375 C2.76720581 113.04459595 2.76720581 113.04459595 1.88012695 113.36108398 C-0.76225986 114.30156769 -3.40648817 115.23676513 -6.05078125 116.171875 C-6.96279297 116.49736328 -7.87480469 116.82285156 -8.81445312 117.15820312 C-9.70068359 117.47080078 -10.58691406 117.78339844 -11.5 118.10546875 C-12.71755981 118.5375061 -12.71755981 118.5375061 -13.9597168 118.97827148 C-30.3025582 124.11933597 -49.3325394 121.28771523 -64.28173828 113.62792969 C-80.39584867 104.91347623 -90.47957776 90.80906285 -96.30078125 73.671875 C-100.43884731 56.34854255 -97.44737081 37.67776928 -88.48339844 22.45263672 C-78.76196308 7.53993792 -63.17135762 -2.96617228 -45.84765625 -6.79296875 C-29.7528224 -8.97623657 -14.64753061 -7.25401516 0 0 Z M-52.36328125 36.734375 C-57.87623525 45.05603399 -60.4641706 53.04809113 -58.83203125 62.9609375 C-56.4819039 72.2526447 -51.82137523 78.95904802 -43.91796875 84.42578125 C-35.55733076 89.268329 -26.21823991 90.42018706 -16.7265625 88.0859375 C-7.41714852 84.28418729 -1.62095163 77.90491322 2.50390625 68.84375 C5.76789046 59.8846761 4.95218648 51.59175595 1.63671875 42.734375 C-2.25642413 34.8513652 -8.10687747 29.44730698 -16.11328125 25.859375 C-29.50814666 21.48179668 -43.46792349 26.14630839 -52.36328125 36.734375 Z " fill="#4BA341" transform="translate(97.36328125,45.265625)"/>
<path d="M0 0 C2.50640389 2.19263085 4.87508222 4.45937527 7.21484375 6.828125 C7.85035156 7.44171875 8.48585938 8.0553125 9.140625 8.6875 C23.5445089 23.63432409 24.21484375 42.80454553 24.21484375 62.828125 C-5.81515625 63.158125 -35.84515625 63.488125 -66.78515625 63.828125 C-68.23868745 68.43800971 -68.23868745 68.43800971 -66.7734375 70.85546875 C-60.83541711 77.6239815 -53.18201839 82.43645478 -44.16015625 83.828125 C-34.90507151 84.24502071 -27.11973212 81.45354282 -19.78515625 75.828125 C-19.337771 75.13187012 -18.89038574 74.43561523 -18.42944336 73.71826172 C-16.78515625 71.828125 -16.78515625 71.828125 -14.7265625 71.5859375 C-13.54900391 71.76769531 -13.54900391 71.76769531 -12.34765625 71.953125 C-11.46078125 72.08074219 -10.57390625 72.20835938 -9.66015625 72.33984375 C-8.71140625 72.50097656 -7.76265625 72.66210938 -6.78515625 72.828125 C-5.33109375 73.05435547 -5.33109375 73.05435547 -3.84765625 73.28515625 C-0.82098501 73.76989657 2.19662147 74.29344634 5.21484375 74.828125 C6.76751953 75.09496094 6.76751953 75.09496094 8.3515625 75.3671875 C15.95754999 76.69947812 15.95754999 76.69947812 18.21484375 77.828125 C14.54663252 90.65736116 4.00675639 100.27025592 -7.2109375 106.83203125 C-17.90767182 112.54131334 -28.04238328 115.38244255 -40.22265625 115.203125 C-41.7375061 115.1868103 -41.7375061 115.1868103 -43.28295898 115.17016602 C-60.48354107 114.8023653 -74.97132594 108.7165601 -87.16015625 96.58984375 C-99.7080754 83.38838714 -106.51009078 67.5951297 -106.25537109 49.24487305 C-105.45059557 30.31973749 -97.45928613 14.742581 -83.78515625 1.828125 C-60.40651919 -18.25352478 -24.21126143 -18.88002995 0 0 Z M-63.25390625 25.68359375 C-65.28888583 28.69649407 -66.65848572 31.09976947 -67.28515625 34.703125 C-66.95025269 37.21125462 -66.95025269 37.21125462 -63.78515625 38.828125 C-61.53214622 39.13758622 -61.53214622 39.13758622 -59.01000977 39.1027832 C-58.04213028 39.11231522 -57.07425079 39.12184723 -56.07704163 39.13166809 C-55.03325851 39.13075668 -53.9894754 39.12984528 -52.9140625 39.12890625 C-51.3032505 39.13533394 -51.3032505 39.13533394 -49.65989685 39.14189148 C-47.3877737 39.147637 -45.11563214 39.14813342 -42.84350586 39.14379883 C-39.36475267 39.14064052 -35.88685102 39.16409029 -32.40820312 39.18945312 C-30.20182399 39.19172623 -27.99544257 39.19242956 -25.7890625 39.19140625 C-24.74730362 39.200616 -23.70554474 39.20982574 -22.63221741 39.21931458 C-21.66118576 39.21308578 -20.69015411 39.20685699 -19.68969727 39.20043945 C-18.83714859 39.20106888 -17.98459991 39.2016983 -17.10621643 39.2023468 C-14.30189931 38.75021005 -12.90215467 37.67418241 -10.78515625 35.828125 C-12.16833641 29.47414115 -14.26929691 25.38208397 -19.42578125 21.3359375 C-32.31514508 13.09869505 -52.95486426 12.67283591 -63.25390625 25.68359375 Z " fill="#131A2F" transform="translate(701.78515625,51.171875)"/>
<path d="M0 0 C3.57536813 2.7880851 6.81298077 5.77907631 10 9 C10.62390625 9.59039062 11.2478125 10.18078125 11.890625 10.7890625 C15.99821766 14.98916851 18.66126824 19.74725476 21.3125 24.9375 C21.65039551 25.59371338 21.98829102 26.24992676 22.33642578 26.92602539 C28.49609194 39.54944249 27 50.59654791 27 65 C-3.03 65.33 -33.06 65.66 -64 66 C-65.36607566 69.71453737 -65.36607566 69.71453737 -64.13671875 71.9296875 C-58.61801233 79.3375468 -52.10193023 83.65153602 -43 85.5 C-32.9664384 86.73174158 -25.01883449 84.15022535 -17 78 C-16.34523682 76.95561768 -16.34523682 76.95561768 -15.67724609 75.89013672 C-14 74 -14 74 -11.70727539 73.7578125 C-10.82547607 73.87898438 -9.94367676 74.00015625 -9.03515625 74.125 C-8.05691895 74.25261719 -7.07868164 74.38023438 -6.07080078 74.51171875 C-5.05743652 74.67285156 -4.04407227 74.83398438 -3 75 C-1.55149658 75.22623047 -1.55149658 75.22623047 -0.07373047 75.45703125 C2.81240151 75.93683423 5.68697555 76.46047264 8.5625 77 C10.03686523 77.26683594 10.03686523 77.26683594 11.54101562 77.5390625 C18.73013222 78.86506611 18.73013222 78.86506611 21 80 C16.98182427 93.7708334 5.65495829 103.50726123 -6.5144043 110.2644043 C-21.48419324 118.1345871 -39.17463414 119.50826561 -55.6875 115.875 C-65.57719963 112.79884343 -74.23498447 107.80349391 -82 101 C-82.67675781 100.42894531 -83.35351562 99.85789062 -84.05078125 99.26953125 C-95.51544103 88.82889934 -102.20360914 72.77614022 -103.23828125 57.4765625 C-103.5997418 38.71866263 -98.56871466 23.62742525 -86.375 9.1875 C-63.68369448 -14.37121016 -27.18626801 -17.95919915 0 0 Z M-61 29 C-63.10278776 31.75990893 -63.89925508 33.27799471 -64.375 36.6875 C-64.25125 37.450625 -64.1275 38.21375 -64 39 C-60.76195326 41.15869783 -59.85639208 41.25491344 -56.1171875 41.2746582 C-55.12605957 41.28419022 -54.13493164 41.29372223 -53.11376953 41.30354309 C-52.04497559 41.30263168 -50.97618164 41.30172028 -49.875 41.30078125 C-48.77655762 41.30506638 -47.67811523 41.3093515 -46.54638672 41.31376648 C-44.22298879 41.31951185 -41.89957287 41.32000853 -39.57617188 41.31567383 C-36.01401234 41.31251244 -32.45268188 41.33597628 -28.890625 41.36132812 C-26.63541772 41.36360087 -24.3802082 41.36430473 -22.125 41.36328125 C-21.05620605 41.372491 -19.98741211 41.38170074 -18.88623047 41.39118958 C-17.89510254 41.38496078 -16.90397461 41.37873199 -15.8828125 41.37231445 C-14.57401123 41.37325859 -14.57401123 41.37325859 -13.23876953 41.3742218 C-10.51710113 40.91928098 -9.61489928 40.20850016 -8 38 C-7.80040332 33.70867145 -9.34815395 31.1818343 -11.9375 27.9375 C-17.3630991 22.08592411 -24.68061239 18.4821436 -32.62890625 17.76171875 C-44.18235841 17.46942103 -53.07249302 20.39243727 -61 29 Z " fill="#131A2F" transform="translate(1173,49)"/>
<path d="M0 0 C2.51044198 1.92608182 4.85520757 3.93184935 7.17578125 6.08203125 C7.871875 6.72398438 8.56796875 7.3659375 9.28515625 8.02734375 C21.4183334 20.39565999 26.70166424 37.62202926 26.6003418 54.62890625 C26.08265179 70.00378006 20.16050611 83.54831344 10.17578125 95.08203125 C9.59183594 95.76136719 9.00789063 96.44070312 8.40625 97.140625 C-2.33077408 108.736611 -16.99435203 115.61636294 -32.6875 116.5234375 C-54.1454452 117.19399829 -70.89086142 111.9725661 -86.82421875 97.08203125 C-99.826856 83.78232144 -104.24742028 67.5818199 -104.18994141 49.47143555 C-103.85015061 30.82502597 -95.91802618 16.90037289 -82.82421875 4.08203125 C-59.98548037 -17.21301424 -25.01154598 -16.98571103 0 0 Z M-61.6484375 30.71484375 C-68.51135213 38.14822736 -70.53761945 45.68001034 -70.203125 55.71484375 C-69.25199722 64.16713393 -64.97009654 70.36086859 -58.82421875 76.08203125 C-51.32232041 81.90043272 -43.26685591 84.15725125 -33.82421875 83.08203125 C-25.60468771 81.25031629 -19.28592736 77.50886106 -13.82421875 71.08203125 C-8.9722979 63.35145879 -6.89519625 56.18906868 -7.82421875 47.08203125 C-10.15845683 38.22526505 -14.74693961 30.83323638 -22.38671875 25.70703125 C-36.05058672 18.17544137 -50.24550835 20.50836755 -61.6484375 30.71484375 Z " fill="#346C3A" transform="translate(456.82421875,49.91796875)"/>
<path d="M0 0 C12.54 0 25.08 0 38 0 C38.03738281 5.5378125 38.07476563 11.075625 38.11328125 16.78125 C38.14357424 20.29950968 38.17473077 23.81771959 38.20898438 27.3359375 C38.26321447 32.91436187 38.31432814 38.49268778 38.34643555 44.07128906 C38.37253585 48.57130092 38.41298547 53.07098027 38.46318626 57.57078552 C38.4798096 59.28344064 38.49135202 60.99615322 38.49761391 62.70887756 C38.50730467 65.11681585 38.53542165 67.52391212 38.56762695 69.93164062 C38.56619186 70.63223602 38.56475677 71.33283142 38.5632782 72.05465698 C38.67730432 78.12331952 40.08972887 83.4968861 43.8125 88.375 C49.11950426 92.31734602 54.02657531 92.28558145 60.375 91.53515625 C64.04507571 90.78694141 66.25583273 89.53835472 69 87 C71.89903093 82.30732385 72.4429011 78.28153028 72.43237305 72.88330078 C72.4425647 72.09238541 72.45275635 71.30147003 72.46325684 70.48658752 C72.49329288 67.88942291 72.50263824 65.2926277 72.51171875 62.6953125 C72.52857243 60.88783552 72.5467236 59.08037022 72.56611633 57.2729187 C72.61354772 52.52847948 72.64340143 47.7840876 72.66955566 43.03948975 C72.7046474 37.33994784 72.76164062 31.64058767 72.81494904 25.94119263 C72.89338252 17.29415167 72.94404885 8.6473473 73 0 C85.54 0 98.08 0 111 0 C111.83769118 24.93128524 112.15999886 49.81238863 112.13037109 74.75585938 C112.12453776 79.73763103 112.12805895 84.7193504 112.13394356 89.70112038 C112.13753576 93.57679653 112.13641917 97.45245994 112.13381577 101.32813644 C112.13314969 103.1694273 112.13396374 105.01071932 112.13629532 106.85200882 C112.138814 109.38656027 112.13499883 111.92102174 112.12939453 114.45556641 C112.13141876 115.21049881 112.13344299 115.96543121 112.13552856 116.74324036 C112.11429202 121.88570798 112.11429202 121.88570798 111 123 C108.40640678 123.08851529 105.83960309 123.11525945 103.24609375 123.09765625 C102.47064713 123.0962413 101.6952005 123.09482635 100.89625549 123.09336853 C98.40996506 123.08775345 95.9237634 123.07519846 93.4375 123.0625 C91.75586067 123.05748694 90.07421994 123.0529237 88.39257812 123.04882812 C84.26168434 123.03777913 80.13085724 123.02050445 76 123 C75.34 121.02 74.68 119.04 74 117 C69.99009223 118.55222236 66.08951146 120.30377723 62.18359375 122.09765625 C53.10797208 125.84804732 39.45767636 125.43403453 30.2890625 122.03125 C29.53367187 121.6909375 28.77828125 121.350625 28 121 C27.10023438 120.5978125 26.20046875 120.195625 25.2734375 119.78125 C13.87916252 114.13119629 6.46125357 105.93568169 2 94 C0.34013404 88.01026187 -0.28549678 82.37290066 -0.22705078 76.17553711 C-0.22734283 75.34516937 -0.22763489 74.51480164 -0.22793579 73.65927124 C-0.22655626 70.94851777 -0.21106083 68.23804846 -0.1953125 65.52734375 C-0.19157746 63.63448741 -0.18873281 61.74162912 -0.18673706 59.84877014 C-0.17913926 54.89220747 -0.15952425 49.93576397 -0.1373291 44.97924805 C-0.11316893 39.01862297 -0.10407133 33.05795781 -0.09242249 27.09729767 C-0.07309732 18.0647825 -0.03474792 9.03252827 0 0 Z " fill="#131A2F" transform="translate(872,40)"/>
<path d="M0 0 C14.4354035 11.07524832 14.4354035 11.07524832 16.17578125 19.08203125 C12.6954926 21.22960543 9.20830315 23.36543862 5.71435547 25.49072266 C4.52718701 26.21508015 3.34193985 26.94259647 2.15869141 27.67333984 C0.4559564 28.72414608 -1.25436426 29.76262896 -2.96484375 30.80078125 C-4.50446777 31.7434082 -4.50446777 31.7434082 -6.07519531 32.70507812 C-8.82421875 34.08203125 -8.82421875 34.08203125 -12.82421875 34.08203125 C-14.2109375 32.7265625 -14.2109375 32.7265625 -15.51171875 30.89453125 C-19.61817215 25.74317876 -25.32001054 22.31322936 -31.82421875 21.08203125 C-41.03218347 20.17168142 -48.8809714 21.68310796 -56.5625 26.96484375 C-63.7557985 32.91130384 -68.09663232 39.21545599 -69.2578125 48.578125 C-69.6386593 59.29953942 -67.01989084 66.47822528 -59.75 74.29296875 C-52.16614839 81.33841304 -44.23312817 83.53313553 -34.0078125 83.32421875 C-25.7322054 82.69466336 -20.52864976 78.97393182 -14.82421875 73.08203125 C-13.83421875 71.59703125 -13.83421875 71.59703125 -12.82421875 70.08203125 C-8.64365621 70.67258159 -5.70360014 72.09480486 -2.0859375 74.2421875 C-1.01923828 74.87060547 0.04746094 75.49902344 1.14648438 76.14648438 C2.24927734 76.80583984 3.35207031 77.46519531 4.48828125 78.14453125 C6.17147461 79.13936523 6.17147461 79.13936523 7.88867188 80.15429688 C10.65490995 81.79049727 13.41702975 83.43324989 16.17578125 85.08203125 C11.63994753 97.07501978 -0.07340115 105.50952453 -11.32421875 110.89453125 C-20.26738873 114.91605411 -29.24932768 116.64798771 -39.01171875 116.58203125 C-40.00985596 116.57631104 -41.00799316 116.57059082 -42.03637695 116.56469727 C-59.23085466 116.154285 -74.08211481 109.30933947 -86.578125 97.453125 C-100.35394855 82.91064692 -104.47296123 66.19960493 -104.13671875 46.80859375 C-103.49549944 30.48421887 -96.19890279 17.4756731 -84.82421875 6.08203125 C-84.11265625 5.35886719 -83.40109375 4.63570312 -82.66796875 3.890625 C-60.19146507 -17.56792109 -24.68968692 -16.76713178 0 0 Z " fill="#131A2F" transform="translate(841.82421875,49.91796875)"/>
<path d="M0 0 C4.30254348 3.39965427 7.88041885 7.53146547 10.01171875 12.62890625 C10.04532718 14.29523402 10.04891416 15.96265468 10.01171875 17.62890625 C5.99315931 18.49117276 1.97297771 19.34538359 -2.04882812 20.19238281 C-3.41484948 20.4812246 -4.78041991 20.77220802 -6.14550781 21.06542969 C-8.1153164 21.48814773 -10.08694419 21.90235984 -12.05859375 22.31640625 C-13.24211426 22.56777344 -14.42563477 22.81914063 -15.64501953 23.078125 C-18.8758914 23.61039073 -21.72548927 23.9156418 -24.98828125 23.62890625 C-25.75140625 22.80390625 -26.51453125 21.97890625 -27.30078125 21.12890625 C-30.20128012 18.43076777 -30.79381876 18.20759928 -34.55078125 18.06640625 C-37.61262356 18.26064666 -38.92006421 18.58830087 -41.61328125 20.19140625 C-43.2666032 22.67070293 -43.2666032 22.67070293 -43.05078125 26.12890625 C-41.56882264 31.01065224 -39.43102683 32.24316652 -35.1015625 34.69921875 C-30.18076532 37.29272791 -25.09707427 39.42399078 -19.95458984 41.52856445 C-7.08563923 46.8100772 5.09186627 52.51304726 11.28515625 65.734375 C15.01413946 75.45779897 12.9662741 85.27644152 9.01171875 94.62890625 C2.43392522 106.16185459 -8.49190083 111.5685769 -20.80786133 115.15942383 C-36.35157089 118.50625548 -56.37499114 116.49210468 -70 108.1015625 C-76.2030878 103.50713401 -81.72612584 97.70213745 -84.98828125 90.62890625 C-84.98828125 89.63890625 -84.98828125 88.64890625 -84.98828125 87.62890625 C-80.50676345 86.60217727 -76.0227862 85.58730212 -71.53613281 84.58325195 C-70.01066163 84.24013439 -68.4859089 83.89380603 -66.96191406 83.54418945 C-64.76939617 83.04179699 -62.57454174 82.55106232 -60.37890625 82.0625 C-59.69959045 81.90422226 -59.02027466 81.74594452 -58.32037354 81.58287048 C-53.82628906 80.5987956 -51.00699703 80.35940457 -47.09375 82.8203125 C-46.46082031 83.27277344 -45.82789063 83.72523438 -45.17578125 84.19140625 C-41.2943524 86.68042661 -38.66002926 87.33407576 -33.98828125 86.62890625 C-31.67548514 85.47250819 -29.81418297 84.45480797 -27.98828125 82.62890625 C-27.48702842 79.29748347 -27.48702842 79.29748347 -27.98828125 75.62890625 C-31.84242217 70.86295068 -36.56220327 68.45678227 -41.92578125 65.75390625 C-42.76681396 65.31828369 -43.60784668 64.88266113 -44.47436523 64.43383789 C-48.28466944 62.46911017 -52.10999723 60.55259772 -55.99609375 58.7421875 C-66.12294518 53.9681004 -77.44567977 46.9352356 -81.73828125 35.94140625 C-84.79017153 26.93748685 -82.82724673 19.06927983 -78.98828125 10.62890625 C-73.95805527 1.12736828 -64.9884581 -4.97629687 -54.98828125 -8.37109375 C-36.57318844 -13.47727824 -15.86940112 -10.94333947 0 0 Z " fill="#131A2F" transform="translate(572.98828125,48.37109375)"/>
<path d="M0 0 C12.54 0 25.08 0 38 0 C38.33 53.79 38.66 107.58 39 163 C26.46 163 13.92 163 1 163 C-0.06689312 130.85879467 -0.12336907 98.74377177 -0.07202661 66.59022403 C-0.06061077 59.30781878 -0.05529154 52.02541231 -0.05032361 44.74300027 C-0.04002088 29.82865515 -0.02177031 14.91433362 0 0 Z " fill="#44933F" transform="translate(155,0)"/>
<path d="M0 0 C11.88 0 23.76 0 36 0 C36.495 2.97 36.495 2.97 37 6 C37.94101563 5.65066406 38.88203125 5.30132812 39.8515625 4.94140625 C41.10927474 4.48149655 42.36709293 4.02187653 43.625 3.5625 C44.85476563 3.11003906 46.08453125 2.65757813 47.3515625 2.19140625 C53.98450124 0.02540377 58.78212394 0 66 0 C66 9.9 66 19.8 66 30 C62.04 30 58.08 30 54 30 C47.27010348 31.45270071 47.27010348 31.45270071 42.5 36 C40.13505651 40.72988699 39.83464808 44.59099407 39.79467773 49.77612305 C39.78477814 50.56660034 39.77487854 51.35707764 39.76467896 52.17150879 C39.73308607 54.78488162 39.70831526 57.39827263 39.68359375 60.01171875 C39.66302231 61.82347588 39.64202579 63.63522823 39.62062073 65.44697571 C39.56541965 70.21611664 39.51600169 74.98530074 39.46777344 79.7545166 C39.40871323 85.47645034 39.34249604 91.19830515 39.27747345 96.92017365 C39.17948862 105.6134009 39.09061568 114.30667873 39 123 C26.46 123 13.92 123 1 123 C0.82800579 112.62506361 0.65928823 102.25013193 0.5 91.875 C0.48812275 91.10169468 0.4762455 90.32838936 0.46400833 89.53165054 C0.00863704 59.68513022 -0.11179872 29.85025713 0 0 Z " fill="#131A2F" transform="translate(1001,40)"/>
<path d="M0 0 C9 0 9 0 11.55053711 2.33911133 C12.2028833 3.4092749 12.85522949 4.47943848 13.52734375 5.58203125 C13.88719864 6.1520134 14.24705353 6.72199554 14.61781311 7.30924988 C15.75556135 9.12642176 16.8461958 10.96714244 17.9375 12.8125 C18.69559595 14.04155153 19.45663838 15.2687908 20.22070312 16.49414062 C21.61785193 18.74356918 22.99212234 21.00200403 24.35522461 23.27270508 C25.5238598 25.21048505 26.74477101 27.11715651 28 29 C28.33 19.43 28.66 9.86 29 0 C30.98 0 32.96 0 35 0 C35 13.53 35 27.06 35 41 C27 41 27 41 25.109375 39.48046875 C24.66078125 38.72378906 24.2121875 37.96710938 23.75 37.1875 C23.19699219 36.29675781 22.64398437 35.40601563 22.07421875 34.48828125 C21.76145996 33.95799316 21.44870117 33.42770508 21.12646484 32.88134766 C19.27709856 29.79265746 17.32066097 26.77221215 15.38208008 23.73901367 C12.90330919 19.83743561 10.45482575 15.91668827 8 12 C7.67 21.57 7.34 31.14 7 41 C4.69 41 2.38 41 0 41 C0 27.47 0 13.94 0 0 Z " fill="#131A2F" transform="translate(891,189)"/>
<path d="M0 0 C23.20173267 0 23.20173267 0 30.375 5.25 C35.10296459 10.20310576 36.18028439 14.25712639 36.5 20.9375 C36.33093254 26.81810718 35.00395701 30.67572643 31 35 C21.47873463 43.5011298 14.15431942 41 0 41 C0 27.47 0 13.94 0 0 Z M6 6 C6 15.57 6 25.14 6 35 C16.20298204 35.70272688 16.20298204 35.70272688 24 32 C28.19568102 27.35073184 29.37811653 24.46628139 29.26953125 18.31640625 C28.83696073 14.5988074 27.5289763 12.71864952 25 10 C18.77930156 5.30154306 14.17880591 6 6 6 Z " fill="#131A2F" transform="translate(935,189)"/>
<path d="M0 0 C19.26315789 0 19.26315789 0 25.875 4.1875 C27.77398425 7.24697463 28.10696838 10.4767291 28 14 C26.32908103 18.82709925 23.97712298 20.94869909 20 24 C20.6496875 25.05960938 21.299375 26.11921875 21.96875 27.2109375 C22.81273123 28.59881775 23.65646864 29.98684629 24.5 31.375 C25.14388672 32.42300781 25.14388672 32.42300781 25.80078125 33.4921875 C29 38.7734375 29 38.7734375 29 41 C23.91651855 41.72929861 23.91651855 41.72929861 21 41 C18.62899415 38.53436759 17.28477089 35.62707717 15.8125 32.5625 C15.02204457 30.97265023 14.21659412 29.39014534 13.39453125 27.81640625 C13.05268799 27.10943604 12.71084473 26.40246582 12.35864258 25.67407227 C10.8168241 23.41060449 10.8168241 23.41060449 6 23 C6 28.94 6 34.88 6 41 C4.02 41 2.04 41 0 41 C0 27.47 0 13.94 0 0 Z M6 6 C6 9.96 6 13.92 6 18 C13.58549469 18.54840232 13.58549469 18.54840232 20 15 C21.07272562 12.55460214 21.07272562 12.55460214 21 10 C19.27773504 6.75150023 19.27773504 6.75150023 16 6 C14.27204648 5.93197033 12.54164635 5.91504355 10.8125 5.9375 C8.4303125 5.9684375 8.4303125 5.9684375 6 6 Z " fill="#131A2F" transform="translate(1138,189)"/>
<path d="M0 0 C2.31 0 4.62 0 7 0 C7.33 4.95 7.66 9.9 8 15 C8.97839844 13.9171875 9.95679688 12.834375 10.96484375 11.71875 C12.28781872 10.31132981 13.61210756 8.90514385 14.9375 7.5 C15.57751953 6.78457031 16.21753906 6.06914062 16.87695312 5.33203125 C21.75880006 0.23159416 21.75880006 0.23159416 25.51220703 -0.46875 C27.72794831 -0.46875 29.81279256 -0.34219673 32 0 C30.61917102 3.14756649 29.05200845 5.13883972 26.5234375 7.453125 C25.853125 8.071875 25.1828125 8.690625 24.4921875 9.328125 C23.79351562 9.96234375 23.09484375 10.5965625 22.375 11.25 C21.66859375 11.8996875 20.9621875 12.549375 20.234375 13.21875 C18.49427822 14.81775785 16.74943338 16.41122239 15 18 C16.64776345 21.47150163 18.58414371 23.96717944 21.1875 26.8125 C21.98414063 27.68519531 22.78078125 28.55789062 23.6015625 29.45703125 C26.25115587 32.26629067 28.9763807 34.97545208 31.78515625 37.625 C33 39 33 39 33 41 C29.07024328 41.56139382 25.50373239 42.00556338 22.08984375 39.72265625 C20.2706048 37.8951292 18.63041524 35.99772718 17 34 C15.73122803 32.56068027 14.46042435 31.1231487 13.1875 29.6875 C12.62417969 29.03136719 12.06085938 28.37523437 11.48046875 27.69921875 C10.36828828 26.42270555 9.19716986 25.19716986 8 24 C7.67 29.61 7.34 35.22 7 41 C4.69 41 2.38 41 0 41 C0 27.47 0 13.94 0 0 Z " fill="#131A2F" transform="translate(488,189)"/>
<path d="M0 0 C8.91 0 17.82 0 27 0 C27 1.98 27 3.96 27 6 C20.4 6 13.8 6 7 6 C7 9.63 7 13.26 7 17 C13.27 17 19.54 17 26 17 C26 18.98 26 20.96 26 23 C19.73 23 13.46 23 7 23 C7 26.96 7 30.92 7 35 C13.93 35 20.86 35 28 35 C28 36.98 28 38.96 28 41 C18.76 41 9.52 41 0 41 C0 27.47 0 13.94 0 0 Z " fill="#131A2F" transform="translate(1172,189)"/>
<path d="M0 0 C8.91 0 17.82 0 27 0 C27 1.98 27 3.96 27 6 C20.4 6 13.8 6 7 6 C7 9.63 7 13.26 7 17 C13.27 17 19.54 17 26 17 C26 18.98 26 20.96 26 23 C19.73 23 13.46 23 7 23 C7 26.96 7 30.92 7 35 C13.93 35 20.86 35 28 35 C28 36.98 28 38.96 28 41 C18.76 41 9.52 41 0 41 C0 27.47 0 13.94 0 0 Z " fill="#131A2F" transform="translate(804,189)"/>
<path d="M0 0 C1.98 0 3.96 0 6 0 C10.31508815 8.38155863 14.21547291 16.87609534 17.875 25.5625 C18.37257813 26.72330078 18.87015625 27.88410156 19.3828125 29.08007812 C19.85203125 30.18931641 20.32125 31.29855469 20.8046875 32.44140625 C21.43866455 33.93716187 21.43866455 33.93716187 22.08544922 35.46313477 C23 38 23 38 23 41 C20.69 41 18.38 41 16 41 C15.32845067 39.71086513 14.66291141 38.41859796 14 37.125 C13.62875 36.40570313 13.2575 35.68640625 12.875 34.9453125 C12 33 12 33 12 31 C6.06 31 0.12 31 -6 31 C-6.474375 32.464375 -6.94875 33.92875 -7.4375 35.4375 C-8.875 39.875 -8.875 39.875 -10 41 C-12.33297433 41.04092937 -14.66705225 41.04241723 -17 41 C-14.41459088 32.58347032 -10.90503138 24.61238969 -7.375 16.5625 C-6.77049256 15.17527866 -6.16632329 13.7879099 -5.5625 12.40039062 C-1.22844653 2.45689307 -1.22844653 2.45689307 0 0 Z M2 10 C1.16260219 12.1234016 0.33019717 14.2487728 -0.5 16.375 C-0.9640625 17.55835938 -1.428125 18.74171875 -1.90625 19.9609375 C-3.11287794 22.7753244 -3.11287794 22.7753244 -3 25 C0.96 25 4.92 25 9 25 C6.8092006 17.39230548 6.8092006 17.39230548 4 10 C3.34 10 2.68 10 2 10 Z " fill="#131A2F" transform="translate(745,189)"/>
<path d="M0 0 C1.98 0 3.96 0 6 0 C9.82853795 7.37725278 13.23482303 14.91407095 16.50415039 22.55249023 C17.32280443 24.46152916 18.15048274 26.36649776 18.97851562 28.27148438 C19.49736328 29.47998047 20.01621094 30.68847656 20.55078125 31.93359375 C21.02169189 33.02728271 21.49260254 34.12097168 21.9777832 35.24780273 C23 38 23 38 23 41 C20.69 41 18.38 41 16 41 C15.32845067 39.71086513 14.66291141 38.41859796 14 37.125 C13.62875 36.40570313 13.2575 35.68640625 12.875 34.9453125 C12 33 12 33 12 31 C6.06 31 0.12 31 -6 31 C-6.474375 32.464375 -6.94875 33.92875 -7.4375 35.4375 C-8.875 39.875 -8.875 39.875 -10 41 C-12.33297433 41.04092937 -14.66705225 41.04241723 -17 41 C-14.41459088 32.58347032 -10.90503138 24.61238969 -7.375 16.5625 C-6.77049256 15.17527866 -6.16632329 13.7879099 -5.5625 12.40039062 C-1.22844653 2.45689307 -1.22844653 2.45689307 0 0 Z M2 10 C1.16260219 12.1234016 0.33019717 14.2487728 -0.5 16.375 C-0.9640625 17.55835938 -1.428125 18.74171875 -1.90625 19.9609375 C-3.11287794 22.7753244 -3.11287794 22.7753244 -3 25 C0.96 25 4.92 25 9 25 C6.8092006 17.39230548 6.8092006 17.39230548 4 10 C3.34 10 2.68 10 2 10 Z " fill="#131A2F" transform="translate(864,189)"/>
<path d="M0 0 C8.91 0 17.82 0 27 0 C27 1.98 27 3.96 27 6 C20.4 6 13.8 6 7 6 C7 9.63 7 13.26 7 17 C12.94 17 18.88 17 25 17 C25 18.98 25 20.96 25 23 C19.06 23 13.12 23 7 23 C7 26.96 7 30.92 7 35 C13.93 35 20.86 35 28 35 C28 36.98 28 38.96 28 41 C18.76 41 9.52 41 0 41 C0 27.47 0 13.94 0 0 Z " fill="#131A2F" transform="translate(525,189)"/>
<path d="M0 0 C8.91 0 17.82 0 27 0 C27 1.98 27 3.96 27 6 C20.4 6 13.8 6 7 6 C7 9.63 7 13.26 7 17 C12.94 17 18.88 17 25 17 C25 18.98 25 20.96 25 23 C19.06 23 13.12 23 7 23 C7 26.96 7 30.92 7 35 C13.6 35 20.2 35 27 35 C27 36.98 27 38.96 27 41 C18.09 41 9.18 41 0 41 C0 27.47 0 13.94 0 0 Z " fill="#131A2F" transform="translate(559,189)"/>
<path d="M0 0 C2.31 0 4.62 0 7 0 C7.01458252 0.85231201 7.02916504 1.70462402 7.04418945 2.58276367 C7.10543285 5.76071175 7.17962029 8.93802546 7.26245117 12.11547852 C7.29559806 13.48775958 7.32366171 14.86017362 7.34643555 16.23266602 C7.38016766 18.21137766 7.4340149 20.18971376 7.48828125 22.16796875 C7.51446533 23.35672607 7.54064941 24.5454834 7.56762695 25.77026367 C8.03531893 29.263825 8.90543572 31.19216035 11 34 C14.09173752 35.54586876 16.59429552 35.29359521 20 35 C22.90717073 32.78136971 23.83981643 31.48055071 25 28 C25.15070797 25.86338742 25.2485966 23.72287876 25.31640625 21.58203125 C25.35830078 20.32841797 25.40019531 19.07480469 25.44335938 17.78320312 C25.48267578 16.47287109 25.52199219 15.16253906 25.5625 13.8125 C25.60570992 12.47720022 25.649325 11.14191348 25.69335938 9.80664062 C25.79956502 6.53786703 25.90160997 3.26901667 26 0 C27.98 0 29.96 0 32 0 C32.09932276 4.44736742 32.17168003 8.89413713 32.21972656 13.34228516 C32.23976791 14.85346736 32.26700905 16.36457272 32.30175781 17.87548828 C32.35061109 20.05520643 32.37304224 22.23389431 32.390625 24.4140625 C32.41157227 25.7232666 32.43251953 27.0324707 32.45410156 28.38134766 C31.77912918 33.76007919 29.33923527 36.75875755 25.4375 40.375 C20.08535695 42.90510399 14.49673741 43.18244104 8.83984375 41.26953125 C4.35369361 38.9359712 1.97909881 36.01143847 0.43579102 31.26464844 C-0.14687031 28.23676805 -0.11117849 25.34869633 -0.09765625 22.265625 C-0.09443359 20.97011719 -0.09121094 19.67460937 -0.08789062 18.33984375 C-0.07953598 16.97656183 -0.07107104 15.61328058 -0.0625 14.25 C-0.05748168 12.87109535 -0.05291935 11.49218896 -0.04882812 10.11328125 C-0.03704093 6.74214341 -0.02058635 3.37109372 0 0 Z " fill="#131A2F" transform="translate(1097,189)"/>
<path d="M0 0 C8.58 0 17.16 0 26 0 C26 1.98 26 3.96 26 6 C19.4 6 12.8 6 6 6 C6 9.63 6 13.26 6 17 C12.27 17 18.54 17 25 17 C25 18.98 25 20.96 25 23 C18.73 23 12.46 23 6 23 C6 26.96 6 30.92 6 35 C12.93 35 19.86 35 27 35 C27 36.98 27 38.96 27 41 C18.09 41 9.18 41 0 41 C0 27.47 0 13.94 0 0 Z " fill="#131A2F" transform="translate(1024,189)"/>
<path d="M0 0 C1.734375 1.60546875 1.734375 1.60546875 3 3 C2.1875 4.9375 2.1875 4.9375 1 7 C0.01 7.33 -0.98 7.66 -2 8 C-3.051875 7.34 -4.10375 6.68 -5.1875 6 C-8.02144184 4.26847951 -9.80764949 3.71759588 -13.125 4.0625 C-18.17898727 5.28523886 -20.82887222 6.30388391 -23.8125 10.625 C-25.74838169 16.12697953 -25.75013018 20.79128337 -23.875 26.3125 C-21.54823878 29.64752442 -19.65910484 31.20496744 -16 33 C-12.01785089 33.69492406 -8.84049506 33.42958637 -5.1875 31.5625 C-4.465625 31.046875 -3.74375 30.53125 -3 30 C-1.515 29.505 -1.515 29.505 0 29 C2.1875 30.4375 2.1875 30.4375 4 32 C2.26647781 36.08493347 0.4342505 37.42103431 -3.5234375 39.234375 C-9.72499913 41.15157702 -16.48764912 41.05187053 -22.4375 38.375 C-27.77464505 35.23485021 -31.05957564 30.88935814 -33 25 C-33.7287661 18.38178694 -33.95140176 11.58950582 -30.46875 5.71875 C-22.61721663 -3.46921458 -10.63807756 -5.6196801 0 0 Z " fill="#131A2F" transform="translate(1089,191)"/>
<path d="M0 0 C0.99 1.485 0.99 1.485 2 3 C0.35 4.32 -1.3 5.64 -3 7 C-4.0209375 6.2265625 -4.0209375 6.2265625 -5.0625 5.4375 C-8.84509052 3.58644507 -10.96667699 4.01069435 -15 5 C-15.66 5.66 -16.32 6.32 -17 7 C-17.13020099 9.53513532 -17.13020099 9.53513532 -16 12 C-13.42124427 13.55886481 -13.42124427 13.55886481 -10.25 14.5625 C-5.35231295 16.30564231 -0.45016078 18.09967845 2 23 C2.43032996 27.21226823 2.42629046 30.91059104 0.875 34.875 C-2.18377761 38.34161462 -4.97549484 39.74960871 -9.58984375 40.3203125 C-15.97406603 40.5830377 -19.7964789 39.70028167 -25 36 C-25 32 -25 32 -23 30 C-19.98694043 30.38878188 -18.60314689 31.26456874 -16 33 C-10.66531571 33.38464895 -10.66531571 33.38464895 -6 31 C-5.7497843 27.91634129 -5.7497843 27.91634129 -6 25 C-6.87011719 24.61908203 -6.87011719 24.61908203 -7.7578125 24.23046875 C-10.1769103 23.16462863 -12.5887594 22.08348229 -15 21 C-16.11375 20.505 -17.2275 20.01 -18.375 19.5 C-21.20252872 17.88426931 -22.30566985 16.74481484 -24 14 C-24.66407163 10.59663289 -24.59201035 7.4137419 -24 4 C-17.76853649 -4.5460071 -8.75739273 -4.63626674 0 0 Z " fill="#131A2F" transform="translate(1015,191)"/>
<path d="M0 0 C-1.36983503 3.16115776 -1.9890638 3.9927092 -5 6 C-5.804375 5.2575 -5.804375 5.2575 -6.625 4.5 C-9.65118137 2.58872755 -11.47704517 2.62521757 -15 3 C-15.99 3.66 -16.98 4.32 -18 5 C-18.58350505 7.45709375 -18.58350505 7.45709375 -18 10 C-15.23940845 12.4776152 -12.46879712 13.70544249 -9 14.9375 C-2.15314771 17.62985576 -2.15314771 17.62985576 0 21 C1.09363987 25.52037815 1.37797369 27.8438452 -0.0625 32.25 C-2.49162776 35.69779425 -4.14685515 37.21103989 -8 39 C-14.16348623 39.81629505 -19.7977665 39.73493687 -25 36 C-26.375 33.8125 -26.375 33.8125 -27 32 C-25.75 30.4375 -25.75 30.4375 -24 29 C-20.9582904 29.28516028 -19.60954198 30.26030535 -17 32 C-12.29011858 32.46515931 -12.29011858 32.46515931 -8 30.8125 C-6.83792132 28.98564043 -6.83792132 28.98564043 -6.75 26.5625 C-8.52165219 22.93061301 -10.92270078 22.41496811 -14.57421875 20.96484375 C-18.59104343 19.36716952 -22.64194843 17.65328017 -25.4375 14.25 C-26.31158717 10.75365132 -26.65952175 7.53558049 -26 4 C-23.71541013 0.37153374 -21.99557368 -1.52385607 -18.125 -3.375 C-10.76772966 -4.84645407 -6.32359396 -3.67918194 0 0 Z " fill="#131A2F" transform="translate(725,192)"/>
<path d="M0 0 C20.5625 0 20.5625 0 25.4375 4 C27.70212036 8.3480711 27.90017166 12.19908449 27 17 C24.56476072 20.54216623 22.71219462 21.71238294 18.75 23.3125 C14.36817265 24.11583501 10.44894155 24.13689051 6 24 C6 29.61 6 35.22 6 41 C4.02 41 2.04 41 0 41 C0 27.47 0 13.94 0 0 Z M6 6 C6 9.96 6 13.92 6 18 C13.56496142 18.52337989 13.56496142 18.52337989 20 15 C21.32893256 13.18458523 21.32893256 13.18458523 21 11 C19.27810542 8.02360993 19.27810542 8.02360993 16 6 C12.55126829 5.57416575 9.49667573 5.76688828 6 6 Z " fill="#131A2F" transform="translate(593,189)"/>
<path d="M0 0 C8.25 0 16.5 0 25 0 C25 1.98 25 3.96 25 6 C18.73 6 12.46 6 6 6 C6 9.96 6 13.92 6 18 C11.94 18 17.88 18 24 18 C24 19.65 24 21.3 24 23 C18.06 23 12.12 23 6 23 C6 28.94 6 34.88 6 41 C4.02 41 2.04 41 0 41 C0 27.47 0 13.94 0 0 Z " fill="#131A2F" transform="translate(773,189)"/>
<path d="M0 0 C10.56 0 21.12 0 32 0 C32 1.98 32 3.96 32 6 C28.04 6 24.08 6 20 6 C20 17.55 20 29.1 20 41 C17.69 41 15.38 41 13 41 C13 29.45 13 17.9 13 6 C8.71 6 4.42 6 0 6 C0 4.02 0 2.04 0 0 Z " fill="#131A2F" transform="translate(651,189)"/>
<path d="M0 0 C2.31 0 4.62 0 7 0 C7 13.53 7 27.06 7 41 C4.69 41 2.38 41 0 41 C0 27.47 0 13.94 0 0 Z " fill="#131A2F" transform="translate(640,189)"/>
</svg>
