<?xml version="1.0" encoding="UTF-8"?>
<svg version="1.1" xmlns="http://www.w3.org/2000/svg" width="3636" height="1950">
<path d="M0 0 C32.79702568 -0.50883961 65.04578182 2.01187931 97.14794922 9.06201172 C98.22681396 9.29887695 99.30567871 9.53574219 100.41723633 9.77978516 C121.83145369 14.69293893 121.83145369 14.69293893 127.64794922 20.06201172 C130.31490737 25.92338803 131.08517811 30.69686506 131.04667664 37.08462524 C131.05332435 37.96172919 131.05997206 38.83883313 131.06682122 39.74251598 C131.08541887 42.67416653 131.08284832 45.60540664 131.08032227 48.53710938 C131.0893419 50.65731336 131.0996585 52.77751216 131.11116314 54.89770412 C131.13885598 60.70081118 131.14799979 66.50382056 131.15399694 72.30698514 C131.16359979 78.51991615 131.19025699 84.73277658 131.2147522 90.94566345 C131.2595032 103.00940313 131.28815092 115.07311662 131.31064153 127.13691193 C131.32892774 136.87847177 131.35272147 146.62000435 131.38046265 156.36154175 C131.38441324 157.75589698 131.38836325 159.15025222 131.39231271 160.54460746 C131.39825779 162.64060193 131.40420858 164.73659639 131.41017468 166.83259081 C131.46441818 185.92550159 131.51326608 205.01841914 131.54908752 224.1113739 C131.5510695 225.1676919 131.5510695 225.1676919 131.55309152 226.24534965 C131.56366615 231.90217379 131.57406555 237.55899825 131.58443479 243.21582277 C131.62396104 264.71940891 131.6829551 286.22285956 131.75941932 307.72635126 C131.82729144 326.82307741 131.88218303 345.91978624 131.91955662 365.01659775 C131.93994525 375.31387203 131.96598773 385.61105189 132.00765991 395.90826416 C132.04257428 404.57440892 132.06354594 413.24044696 132.06607699 421.90666419 C132.06771244 426.26745188 132.07554308 430.62797334 132.10124588 434.98869133 C132.12443941 438.94874791 132.12885441 442.90837603 132.11863005 446.8684833 C132.11816803 448.28689 132.12435135 449.70531966 132.13824117 451.12365842 C132.23743124 461.82971077 131.28014363 473.81547542 124.25146484 482.5 C120.66616375 485.9925025 116.54314396 488.72048171 112.39794922 491.49951172 C111.38941895 492.18835449 110.38088867 492.87719727 109.34179688 493.58691406 C99.93943539 499.96569157 90.36202787 506.06930777 80.76904297 512.15576172 C74.82892159 515.9318135 68.944349 519.78630875 63.08544922 523.68701172 C62.24739746 524.24275879 61.4093457 524.79850586 60.54589844 525.37109375 C56.05560418 528.37162175 51.689227 531.47571989 47.42016602 534.78442383 C43.80086338 537.39357256 40.42092127 539.12383083 35.84716797 538.96435547 C31.721911 537.80082145 29.17059762 535.52313862 26.08544922 532.68701172 C24.84894028 531.58882579 23.61195011 530.49118149 22.37451172 529.39404297 C21.75350586 528.83668457 21.1325 528.27932617 20.49267578 527.70507812 C17.69165082 525.21025309 14.829358 522.7906163 11.96044922 520.37451172 C11.42202393 519.91882813 10.88359863 519.46314453 10.32885742 518.99365234 C7.00679456 516.18698626 3.65095346 513.42633864 0.27294922 510.68701172 C-9.37881095 502.81320737 -18.89155154 494.79426981 -27.56689453 485.84326172 C-29.41830091 483.91909382 -29.41830091 483.91909382 -32.03955078 481.99951172 C-36.16733708 478.54109617 -39.64344913 474.18781667 -41.35205078 469.06201172 C-41.86308305 462.62300518 -40.73456739 458.73291959 -37.66455078 453.12451172 C-37.30240479 452.42865967 -36.94025879 451.73280762 -36.56713867 451.01586914 C-34.23391493 446.56474028 -31.7691423 442.19553228 -29.06689453 437.95654297 C-28.01826451 435.17738689 -28.33208968 433.85761359 -29.35205078 431.06201172 C-31.13057437 428.88505265 -32.88628525 426.92702379 -34.85205078 424.93701172 C-35.95734376 423.78047348 -37.06018472 422.62158723 -38.16064453 421.46044922 C-38.70575684 420.88649414 -39.25086914 420.31253906 -39.8125 419.72119141 C-42.73227169 416.57454244 -45.38694353 413.21842002 -48.07470703 409.87451172 C-50.62115602 406.72966906 -53.22961859 403.64344868 -55.85205078 400.56201172 C-61.50119336 393.91216389 -67.02029777 387.16078701 -72.52392578 380.39013672 C-80.56617406 370.52269735 -88.71930514 360.77281965 -97.28173828 351.35107422 C-99.84273016 348.51948697 -102.34774489 345.64187289 -104.84423828 342.75341797 C-106.29344064 341.12775832 -107.79620178 339.58525311 -109.35205078 338.06201172 C-131.72902461 346.19909311 -152.24999687 362.77823949 -169.99267578 378.17529297 C-174.3408549 381.93699089 -178.82614455 385.51637089 -183.35205078 389.06201172 C-179.26143947 400.09486242 -171.23970267 409.61246167 -164.35205078 419.06201172 C-163.5404248 420.17769531 -163.5404248 420.17769531 -162.71240234 421.31591797 C-144.52675183 446.27621161 -125.17319844 470.34235294 -104.17480469 493.00390625 C-102.41660859 494.90355685 -100.67295906 496.81339983 -98.93725586 498.73388672 C-92.02931938 506.36610211 -84.86221338 513.70663202 -77.5715332 520.97290039 C-75.65279573 522.88623366 -73.73952324 524.80491676 -71.82666016 526.72412109 C-65.83590019 532.71812898 -59.8202701 538.57938842 -53.35205078 544.06201172 C-51.57634857 545.68168988 -49.80496771 547.3061289 -48.03955078 548.93701172 C-43.5554215 553.02638959 -38.94937841 556.90820193 -34.22705078 560.71826172 C-31.65851886 562.81217361 -29.13173471 564.94371858 -26.61474609 567.09863281 C-20.30000989 572.50023632 -13.84580665 577.68367783 -7.19970703 582.67382812 C-5.91858549 583.63636209 -4.64011582 584.6024319 -3.36376953 585.57128906 C-1.96273788 586.63343481 -0.55752416 587.6900871 0.85185242 588.74113464 C2.41210866 589.91458414 3.95980189 591.10502223 5.49128723 592.31578064 C10.31453648 596.01282922 14.84404365 598.67063859 20.50805664 600.89941406 C28.4151235 604.36599306 36.23955182 608.27806992 40.64794922 616.06201172 C45.71552992 631.03925134 43.29333773 649.08195704 42.50189209 664.58129883 C42.22347822 670.61268049 42.10192639 676.64712394 41.96630859 682.68310547 C41.67843941 694.4841376 41.2190137 706.27152303 40.64794922 718.06201172 C36.78238404 716.57504796 33.60780662 714.84402146 30.18310547 712.49951172 C29.1431543 711.79044678 28.10320312 711.08138184 27.03173828 710.35083008 C25.92442746 709.58820193 24.8173355 708.82525591 23.71044922 708.06201172 C22.56832937 707.27869637 21.42607603 706.49557563 20.28369141 705.71264648 C17.06598202 703.50408462 13.85598716 701.28459829 10.64794922 699.06201172 C9.92269043 698.56040527 9.19743164 698.05879883 8.45019531 697.54199219 C-7.78959818 686.26423691 -23.39329232 674.04167815 -38.64306641 661.46679688 C-40.23193401 660.16074771 -41.83067131 658.86673091 -43.43017578 657.57373047 C-48.7743847 653.25208666 -53.95015351 648.79506786 -59.03173828 644.16748047 C-61.05359262 642.33283486 -63.09883601 640.53432386 -65.16455078 638.74951172 C-76.6660031 628.69008211 -87.54213624 618.0310744 -98.32910156 607.21533203 C-100.74056044 604.7984718 -103.15737517 602.38705881 -105.57470703 599.97607422 C-107.1336218 598.4164992 -108.69222664 596.85661432 -110.25048828 595.29638672 C-110.96103363 594.5878656 -111.67157898 593.87934448 -112.40365601 593.14935303 C-116.37808279 589.15645536 -120.1815121 585.06698739 -123.85614014 580.79603577 C-125.92574184 578.39700269 -128.07725097 576.07665191 -130.22705078 573.74951172 C-134.31642865 569.26538244 -138.19824099 564.65933934 -142.00830078 559.93701172 C-144.10213947 557.36856959 -146.23362057 554.84187876 -148.38842773 552.32495117 C-153.76862576 546.0353975 -158.91600414 539.59749196 -163.89892578 532.98779297 C-165.53404388 530.82082194 -167.17775348 528.6604761 -168.82080078 526.49951172 C-187.52002938 501.82260068 -205.32601482 476.23188985 -221.03564453 449.53076172 C-221.44983643 448.82781982 -221.86402832 448.12487793 -222.29077148 447.40063477 C-223.06351551 446.08081532 -223.82935191 444.7569194 -224.5871582 443.4284668 C-225.45521088 441.9404061 -226.39644544 440.49541973 -227.35205078 439.06201172 C-228.01205078 439.06201172 -228.67205078 439.06201172 -229.35205078 439.06201172 C-230.65288817 440.44153648 -230.65288817 440.44153648 -231.93408203 442.29638672 C-232.44825684 443.00633789 -232.96243164 443.71628906 -233.4921875 444.44775391 C-234.32000732 445.61806152 -234.32000732 445.61806152 -235.16455078 446.81201172 C-235.73189941 447.61026367 -236.29924805 448.40851563 -236.88378906 449.23095703 C-238.71928855 451.83263507 -240.5375946 454.4456201 -242.35205078 457.06201172 C-242.97869629 457.95919922 -243.6053418 458.85638672 -244.25097656 459.78076172 C-246.09838649 462.44355709 -247.91695043 465.12374883 -249.72705078 467.81201172 C-250.30430908 468.64442383 -250.88156738 469.47683594 -251.47631836 470.33447266 C-251.99991943 471.1262793 -252.52352051 471.91808594 -253.06298828 472.73388672 C-253.5301123 473.42579102 -253.99723633 474.11769531 -254.47851562 474.83056641 C-255.72169805 478.00627557 -255.26265438 479.78574472 -254.35205078 483.06201172 C-253.12734403 485.60798695 -251.87712688 487.99115176 -250.45751953 490.42138672 C-250.05865036 491.1160907 -249.65978119 491.81079468 -249.24882507 492.52655029 C-244.70771486 500.33270003 -239.71757333 507.83135473 -234.66455078 515.31201172 C-233.68775121 516.76644237 -232.71119162 518.22103423 -231.73486328 519.67578125 C-215.63083086 543.62951287 -198.66595195 566.85900278 -181.10888672 589.76611328 C-179.60374456 591.73308894 -178.10478437 593.70445486 -176.60986328 595.67919922 C-163.20423457 613.3043045 -148.80597834 630.17430719 -133.77001953 646.42529297 C-131.73275606 648.6468646 -129.74974025 650.8978394 -127.78955078 653.18701172 C-124.31473951 657.20346024 -120.53856357 660.88981582 -116.76220703 664.62060547 C-114.68015862 666.72964965 -112.71681996 668.87528574 -110.78955078 671.12451172 C-105.16681441 677.6711719 -98.9963175 683.57358437 -92.44970703 689.18310547 C-89.98779178 691.38828468 -87.67481438 693.71087849 -85.35205078 696.06201172 C-81.84028528 699.61119329 -78.26196177 702.98169629 -74.46923828 706.22607422 C-71.94605623 708.41407341 -69.49650559 710.67494285 -67.03955078 712.93701172 C-62.55057021 717.0308138 -57.93961603 720.91670839 -53.21142578 724.72998047 C-50.71416596 726.76668007 -48.26010722 728.84502085 -45.81738281 730.9465332 C-38.29030681 737.40937264 -30.45612583 743.42228777 -22.54150391 749.40039062 C-20.3806179 751.04033155 -18.23171359 752.69470138 -16.08642578 754.35498047 C-1.69857492 765.4789745 13.17833962 775.81380139 28.25024414 785.98730469 C29.13945557 786.58945801 30.02866699 787.19161133 30.94482422 787.81201172 C31.73211914 788.34310547 32.51941406 788.87419922 33.33056641 789.42138672 C34.4776709 790.23349609 34.4776709 790.23349609 35.64794922 791.06201172 C36.50903793 791.5552594 37.37012665 792.04850708 38.25730896 792.55670166 C41.86283466 796.33517053 41.31303108 799.74557546 41.21557617 804.78759766 C41.2163063 805.77329239 41.21703644 806.75898712 41.2177887 807.77455139 C41.21430544 811.03238975 41.17540794 814.28879816 41.13623047 817.54638672 C41.12690501 819.8051068 41.11978764 822.06383699 41.11479187 824.3225708 C41.09570131 830.26747562 41.04658183 836.21176962 40.99127197 842.15643311 C40.94012443 848.2225315 40.91728738 854.2887286 40.89208984 860.35498047 C40.83846585 872.25759259 40.75312741 884.15975136 40.64794922 896.06201172 C39.22870478 895.28286596 37.81061083 894.50162436 36.39299011 893.7195282 C35.60316333 893.28470469 34.81333654 892.84988119 33.99957561 892.40188122 C30.48947398 890.4019555 27.15879016 888.17030622 23.82373047 885.89404297 C23.1150029 885.41432541 22.40627533 884.93460785 21.67607117 884.44035339 C20.18673421 883.43116589 18.6986118 882.42018381 17.21166992 881.4074707 C14.98557399 879.89162032 12.75560742 878.38161568 10.52490234 876.87255859 C-1.47193796 868.74080875 -13.37864075 860.48592395 -24.85205078 851.62451172 C-25.56143799 851.07867432 -26.2708252 850.53283691 -27.00170898 849.97045898 C-29.12083326 848.33731801 -31.23664918 846.69997016 -33.35205078 845.06201172 C-33.97644043 844.58086914 -34.60083008 844.09972656 -35.24414062 843.60400391 C-42.43706976 838.05722743 -49.44924376 832.34856444 -56.3137207 826.39941406 C-59.77295659 823.40241414 -63.27888867 820.48618035 -66.85205078 817.62451172 C-72.51880116 813.02917057 -77.80649294 808.06499801 -83.12158203 803.07373047 C-85.60960828 800.74098121 -88.13896008 798.47150708 -90.72705078 796.24951172 C-94.02426505 793.40829517 -97.07945154 790.38006094 -100.10205078 787.24951172 C-101.97021013 785.43324569 -103.86975567 783.74959342 -105.84814453 782.05810547 C-111.07407052 777.51703109 -115.94220503 772.62184102 -120.82495117 767.71948242 C-122.41165024 766.12742206 -124.0036282 764.54078182 -125.59619141 762.95458984 C-130.55411005 757.99957153 -135.40524452 753.00016403 -139.96313477 747.66918945 C-141.66625595 745.69843066 -143.47874268 743.87072299 -145.35205078 742.06201172 C-148.5446639 738.91221142 -151.52366357 735.64981683 -154.44580078 732.24951172 C-156.66150726 729.70689773 -158.9430367 727.23090973 -161.22705078 724.74951172 C-165.2772637 720.30950388 -169.107392 715.74266891 -172.87939453 711.06591797 C-175.76088711 707.56533694 -178.7394964 704.15943847 -181.72705078 700.74951172 C-187.33849721 694.31962796 -192.66964617 687.72018316 -197.88037109 680.96337891 C-199.46314068 678.91848681 -201.05884603 676.88416852 -202.65673828 674.85107422 C-208.70307832 667.14507121 -214.66019926 659.38048616 -220.47705078 651.49951172 C-221.24625854 650.45887573 -221.24625854 650.45887573 -222.03100586 649.3972168 C-232.09910961 635.67675935 -241.74126619 621.66841909 -251.16455078 607.49951172 C-251.68196838 606.72264008 -252.19938599 605.94576843 -252.73248291 605.14535522 C-264.53206597 587.41561023 -275.92536669 569.47139004 -286.59423828 551.03466797 C-288.06502465 548.2661242 -288.06502465 548.2661242 -289.35205078 547.06201172 C-289.62727066 547.87221016 -289.62727066 547.87221016 -289.90805054 548.69877625 C-291.82071628 554.32845984 -293.73525662 559.9575034 -295.65087891 565.58618164 C-296.36522588 567.68595337 -297.07909729 569.78588696 -297.79248047 571.88598633 C-298.81889384 574.90732987 -299.84702496 577.9280842 -300.87548828 580.94873047 C-301.1932724 581.88537033 -301.51105652 582.82201019 -301.83847046 583.78703308 C-302.13863068 584.66756851 -302.43879089 585.54810394 -302.74804688 586.45532227 C-303.02493347 587.2721347 -303.30182007 588.08894714 -303.58709717 588.93051147 C-304.35205078 591.06201172 -304.35205078 591.06201172 -305.63183594 593.8190918 C-306.9740832 597.99916827 -305.71953636 601.24208071 -303.97607422 605.13208008 C-303.39374023 606.21110596 -302.81140625 607.29013184 -302.21142578 608.40185547 C-301.73395653 609.29415611 -301.73395653 609.29415611 -301.24684143 610.20448303 C-300.20730612 612.14101204 -299.15518411 614.07034875 -298.10205078 615.99951172 C-297.37138198 617.35148529 -296.64116213 618.70370159 -295.91137695 620.05615234 C-289.55013585 631.81418068 -283.04154437 643.4874683 -276.35205078 655.06201172 C-275.82015137 655.9841748 -275.28825195 656.90633789 -274.74023438 657.85644531 C-256.15958876 689.96955753 -235.21388606 720.83957044 -212.35205078 750.06201172 C-211.45985663 751.21284639 -210.56793715 752.36389404 -209.67626953 753.51513672 C-204.6952483 759.92448701 -199.60486582 766.21671065 -194.32788086 772.38500977 C-191.52097544 775.66663075 -188.79394351 778.99704331 -186.10205078 782.37451172 C-181.60832794 787.90649544 -176.75345801 793.06896011 -171.84326172 798.22924805 C-171.23514648 798.86886475 -170.62703125 799.50848145 -170.00048828 800.16748047 C-169.19877197 801.00508911 -169.19877197 801.00508911 -168.38085938 801.85961914 C-166.59168863 803.80187056 -164.86581534 805.78038098 -163.14135742 807.77978516 C-159.2930357 812.19078818 -155.21846477 816.33996017 -151.07470703 820.47216797 C-150.30452744 821.24330429 -149.53434784 822.01444061 -148.74082947 822.8089447 C-147.12263705 824.42781325 -145.50319866 826.04543723 -143.88256836 827.66186523 C-141.42137846 830.1176989 -138.96557269 832.57882537 -136.51025391 835.04052734 C-134.92789212 836.62222825 -133.34522011 838.20361889 -131.76220703 839.78466797 C-130.67589745 840.8740139 -130.67589745 840.8740139 -129.56764221 841.98536682 C-125.5369264 845.99786819 -121.41487561 849.84351381 -117.10125732 853.55091858 C-114.51879565 855.78183873 -112.03670603 858.11099019 -109.53955078 860.43701172 C-104.91771247 864.70720431 -100.1578113 868.74426544 -95.25439453 872.69091797 C-91.96240913 875.38033269 -88.75224058 878.15397987 -85.53955078 880.93701172 C-78.64880737 886.87634095 -71.5629066 892.51782402 -64.35205078 898.06201172 C-63.56910645 898.66561523 -62.78616211 899.26921875 -61.97949219 899.89111328 C-49.92765775 909.17100268 -37.76738967 918.27390918 -25.35205078 927.06201172 C-24.06572754 927.97370117 -24.06572754 927.97370117 -22.75341797 928.90380859 C-9.49248736 938.27734045 3.9735793 947.29120835 17.59716797 956.12451172 C21.77633306 958.83883577 25.94792461 961.56392286 30.10498047 964.31201172 C31.52194214 965.24787109 31.52194214 965.24787109 32.9675293 966.20263672 C33.85206787 966.81623047 34.73660645 967.42982422 35.64794922 968.06201172 C36.51652557 968.56166443 37.38510193 969.06131714 38.27999878 969.57611084 C41.84980009 973.32372822 41.31314515 976.69862929 41.21557617 981.69580078 C41.2163063 982.67174194 41.21703644 983.64768311 41.2177887 984.65319824 C41.21430563 987.87857671 41.17540917 991.10251058 41.13623047 994.32763672 C41.12690494 996.56393647 41.1197876 998.80024644 41.11479187 1001.03656006 C41.09570185 1006.922284 41.04658289 1012.80739093 40.99127197 1018.69287109 C40.94012323 1024.69864556 40.91728712 1030.70451973 40.89208984 1036.71044922 C40.83846683 1048.49457447 40.75312908 1060.27824178 40.64794922 1072.06201172 C35.68245537 1070.11659392 31.45161035 1067.60586835 26.96044922 1064.74951172 C26.12030273 1064.21680664 25.28015625 1063.68410156 24.41455078 1063.13525391 C17.22960101 1058.52924077 10.3274293 1053.59182911 3.44482422 1048.55029297 C-9.45526961 1039.11892714 -22.67518828 1030.1151921 -35.99438477 1021.28833008 C-61.95611331 1004.07919512 -87.54892347 986.17436954 -111.35205078 966.06201172 C-112.00109375 965.51738281 -112.65013672 964.97275391 -113.31884766 964.41162109 C-119.59389807 959.14312699 -125.75349494 953.86902643 -131.44764709 947.9657135 C-133.18213439 946.23186549 -134.96146421 944.64876031 -136.83422852 943.06762695 C-142.57418464 938.07875466 -147.89357348 932.6646468 -153.26220703 927.28466797 C-154.39971111 926.14783926 -155.53736345 925.01115889 -156.67515564 923.87461853 C-159.04767764 921.50356251 -161.41840319 919.13072899 -163.7878418 916.7565918 C-166.8057099 913.73302711 -169.82804654 910.71397539 -172.85175419 907.69625187 C-175.19832811 905.35331338 -177.54248813 903.00797132 -179.8859539 900.66192436 C-180.99865035 899.54856688 -182.11207329 898.43593491 -183.22627449 897.32408333 C-188.64145883 891.91781805 -193.98824665 886.4998748 -198.96635437 880.68128967 C-200.65476556 878.70826947 -202.42092631 876.82169979 -204.21923828 874.94873047 C-204.87263184 874.26375488 -205.52602539 873.5787793 -206.19921875 872.87304688 C-206.86840332 872.17228027 -207.53758789 871.47151367 -208.22705078 870.74951172 C-213.4974162 865.1944573 -218.52755358 859.58694664 -223.28955078 853.58935547 C-225.50502882 850.87455567 -227.84245545 848.31667763 -230.22705078 845.74951172 C-234.41117416 841.19790755 -238.26194712 836.47945422 -242.04174805 831.59472656 C-244.98341298 827.79424483 -247.98391807 824.05354054 -251.04150391 820.34570312 C-269.50453285 797.92234336 -286.26159519 773.87056123 -301.35205078 749.06201172 C-302.12645508 747.78922363 -302.12645508 747.78922363 -302.91650391 746.49072266 C-343.28190333 679.81179129 -373.45633987 608.32454514 -380.35205078 530.06201172 C-380.43824677 529.09116135 -380.52444275 528.12031097 -380.61325073 527.12004089 C-381.25381103 519.41804062 -381.52481403 511.77329682 -381.55517578 504.04638672 C-381.56219009 502.84426544 -381.56920441 501.64214417 -381.57643127 500.40359497 C-381.59385081 496.53969536 -381.60028495 492.67594918 -381.60205078 488.81201172 C-381.60249264 488.15270912 -381.60293449 487.49340652 -381.60338974 486.81412506 C-381.61068304 466.05314135 -381.13361593 445.6591624 -378.35205078 425.06201172 C-378.17829283 423.72515193 -378.00496404 422.38823631 -377.83203125 421.05126953 C-366.40156375 333.77623503 -335.80425943 246.53991497 -254.61767578 127.53857422 C-253.37481699 126.18000099 -252.13964168 124.8136491 -250.94287109 123.41430664 C-245.94978384 117.58027047 -240.60111381 112.12492724 -235.17431641 106.69897461 C-233.61344751 105.13592438 -232.0607719 103.56503807 -230.50830078 101.99365234 C-224.11399012 95.56395945 -217.46333405 89.70445274 -210.35205078 84.06201172 C-209.32435906 83.19879212 -208.30094003 82.33040287 -207.28564453 81.45263672 C-174.01794742 52.92259288 -133.63721907 31.32843715 -92.35205078 17.06201172 C-91.53075684 16.77632324 -90.70946289 16.49063477 -89.86328125 16.19628906 C-66.90360026 8.31177017 -43.44661631 3.76438561 -19.35205078 1.06201172 C-18.58699219 0.97580566 -17.82193359 0.88959961 -17.03369141 0.80078125 C-11.35917661 0.20743304 -5.6979971 0.10541087 0 0 Z " fill="#8D1512" transform="translate(707.35205078125,245.93798828125)"/>
<path d="M0 0 C0.68759399 0.00310181 1.37518799 0.00620361 2.08361816 0.00939941 C30.08239824 0.15580457 57.83280349 3.24248561 85.1875 9.25 C86.26636475 9.48686523 87.34522949 9.72373047 88.45678711 9.96777344 C109.87100448 14.88092721 109.87100448 14.88092721 115.6875 20.25 C118.35445815 26.11137631 119.1247289 30.88485334 119.08622742 37.27261353 C119.09287513 38.14971747 119.09952284 39.02682141 119.106372 39.93050426 C119.12496965 42.86215481 119.12239911 45.79339492 119.11987305 48.72509766 C119.12889268 50.84530164 119.13920928 52.96550045 119.15071392 55.08569241 C119.17840677 60.88879947 119.18755057 66.69180884 119.19354773 72.49497342 C119.20315057 78.70790443 119.22980778 84.92076486 119.25430298 91.13365173 C119.29905398 103.19739142 119.3277017 115.2611049 119.35019231 127.32490021 C119.36847852 137.06646005 119.39227225 146.80799263 119.42001343 156.54953003 C119.42396402 157.94388527 119.42791404 159.3382405 119.43186349 160.73259574 C119.43780857 162.82859022 119.44375936 164.92458467 119.44972546 167.02057909 C119.50396896 186.11348988 119.55281686 205.20640742 119.58863831 224.29936218 C119.58995962 225.00357418 119.59128094 225.70778618 119.5926423 226.43333793 C119.60321693 232.09016207 119.61361633 237.74698653 119.62398557 243.40381105 C119.66351183 264.90739719 119.72250588 286.41084784 119.7989701 307.91433954 C119.86684222 327.01106569 119.92173381 346.10777453 119.9591074 365.20458603 C119.97949603 375.50186032 120.00553851 385.79904017 120.04721069 396.09625244 C120.08212506 404.7623972 120.10309672 413.42843524 120.10562778 422.09465247 C120.10726322 426.45544017 120.11509386 430.81596162 120.14079666 435.17667961 C120.16399019 439.13673619 120.16840519 443.09636431 120.15818083 447.05647159 C120.15771881 448.47487828 120.16390213 449.89330794 120.17779195 451.3116467 C120.27698202 462.01769905 119.31969441 474.0034637 112.29101562 482.68798828 C108.70571453 486.18049078 104.58269474 488.90847 100.4375 491.6875 C99.42896973 492.37634277 98.42043945 493.06518555 97.38134766 493.77490234 C87.97898617 500.15367985 78.40157865 506.25729605 68.80859375 512.34375 C62.86847237 516.11980178 56.98389979 519.97429704 51.125 523.875 C50.28694824 524.43074707 49.44889648 524.98649414 48.58544922 525.55908203 C44.09515496 528.55961003 39.72877778 531.66370818 35.4597168 534.97241211 C31.84041416 537.58156085 28.46047205 539.31181911 23.88671875 539.15234375 C19.76146178 537.98880973 17.2101484 535.7111269 14.125 532.875 C12.88849106 531.77681407 11.65150089 530.67916977 10.4140625 529.58203125 C9.79305664 529.02467285 9.17205078 528.46731445 8.53222656 527.89306641 C5.7312016 525.39824137 2.86890878 522.97860459 0 520.5625 C-0.53842529 520.10681641 -1.07685059 519.65113281 -1.6315918 519.18164062 C-4.95365466 516.37497454 -8.30949576 513.61432693 -11.6875 510.875 C-21.33926017 503.00119565 -30.85200076 494.98225809 -39.52734375 486.03125 C-41.37875013 484.1070821 -41.37875013 484.1070821 -44 482.1875 C-48.1277863 478.72908445 -51.60389835 474.37580495 -53.3125 469.25 C-53.82353227 462.81099346 -52.69501661 458.92090787 -49.625 453.3125 C-49.262854 452.61664795 -48.90070801 451.9207959 -48.52758789 451.20385742 C-46.19436415 446.75272857 -43.72959152 442.38352056 -41.02734375 438.14453125 C-39.97871373 435.36537517 -40.2925389 434.04560187 -41.3125 431.25 C-43.09102359 429.07304093 -44.84673447 427.11501207 -46.8125 425.125 C-47.91779298 423.96846176 -49.02063394 422.80957551 -50.12109375 421.6484375 C-50.66620605 421.07448242 -51.21131836 420.50052734 -51.77294922 419.90917969 C-54.69272091 416.76253072 -57.34739275 413.4064083 -60.03515625 410.0625 C-62.58160524 406.91765734 -65.19006781 403.83143696 -67.8125 400.75 C-73.46164257 394.10015217 -78.98074699 387.34877529 -84.484375 380.578125 C-92.52662327 370.71068563 -100.67975436 360.96080793 -109.2421875 351.5390625 C-111.80317938 348.70747525 -114.3081941 345.82986117 -116.8046875 342.94140625 C-118.25388986 341.3157466 -119.756651 339.77324139 -121.3125 338.25 C-143.70551765 346.39291551 -164.18886597 362.98261275 -181.96484375 378.36328125 C-184.94911625 380.9428198 -187.95319441 383.49425741 -191 386 C-192.15048828 386.95132813 -192.15048828 386.95132813 -193.32421875 387.921875 C-195.3125 389.25 -195.3125 389.25 -198.3125 389.25 C-206.21950366 370.43581754 -210.27774679 350.95248457 -212.625 330.75 C-212.70631165 330.0522345 -212.78762329 329.35446899 -212.87139893 328.63555908 C-217.90038679 284.60758144 -217.79007758 239.25097563 -206.3125 196.25 C-206.09899902 195.4362793 -205.88549805 194.62255859 -205.66552734 193.78417969 C-196.37914039 159.01050963 -180.16967825 125.14807109 -157.3125 97.25 C-156.58804688 96.34636719 -155.86359375 95.44273437 -155.1171875 94.51171875 C-152.87497927 91.73507737 -150.60164547 88.98807027 -148.3125 86.25 C-147.85085449 85.69666992 -147.38920898 85.14333984 -146.91357422 84.57324219 C-138.0594382 73.9926811 -128.96254432 64.14986076 -118.140625 55.51953125 C-115.27009026 53.21596677 -112.48264786 50.83170452 -109.6875 48.4375 C-90.96390688 32.83854273 -70.02903445 21.12151132 -48.3125 10.25 C-47.47154785 9.82702637 -46.6305957 9.40405273 -45.76416016 8.96826172 C-43.459467 7.82505517 -41.14134036 6.71803465 -38.8125 5.625 C-38.16885498 5.306521 -37.52520996 4.98804199 -36.86206055 4.65991211 C-25.56977115 -0.45833815 -12.15102911 -0.08737412 0 0 Z " fill="#C51D1A" transform="translate(719.3125,245.75)"/>
<path d="M0 0 C3.41887384 -0.07096564 6.78300568 0.01840649 10.19921875 0.18359375 C11.48022461 0.24522705 11.48022461 0.24522705 12.78710938 0.30810547 C64.63319779 3.04374702 113.61628982 20.76434319 152.05859375 56.23046875 C153.79263133 57.81261983 155.54621257 59.29306256 157.38671875 60.74609375 C161.05796002 63.92783619 164.06642607 67.48065681 167.19921875 71.18359375 C168.03710938 72.13363281 168.875 73.08367187 169.73828125 74.0625 C180.73560635 86.61151054 189.41949123 100.45192868 197.19921875 115.18359375 C197.79347656 116.30378906 198.38773438 117.42398438 199 118.578125 C206.98670433 134.64333487 212.45082925 152.22453602 216.13671875 169.74609375 C216.32379395 170.63482178 216.51086914 171.5235498 216.70361328 172.43920898 C219.63391047 187.48878854 220.58263133 202.56796383 220.51171875 217.87109375 C220.50898453 219.10859375 220.50898453 219.10859375 220.50619507 220.37109375 C220.45638412 233.82881248 219.75378721 246.93971394 217.19921875 260.18359375 C217.0276123 261.08883789 216.85600586 261.99408203 216.67919922 262.92675781 C211.0443729 291.76055182 200.47360245 320.2182011 183.19921875 344.18359375 C182.49667969 345.17488281 181.79414063 346.16617187 181.0703125 347.1875 C169.60932827 362.9130365 156.60935963 377.2531621 141.19921875 389.18359375 C140.64637207 389.61285156 140.09352539 390.04210938 139.52392578 390.484375 C111.96584565 411.72881556 79.55320249 426.24458183 45.19921875 432.18359375 C44.41417969 432.33022461 43.62914063 432.47685547 42.8203125 432.62792969 C-15.53801716 443.24476196 -76.95119575 429.46867531 -125.56933594 395.96484375 C-141.52581986 384.7358459 -155.73086552 371.4897938 -167.80078125 356.18359375 C-168.61675781 355.17296875 -169.43273438 354.16234375 -170.2734375 353.12109375 C-176.11275755 345.80808901 -181.12469852 338.19437017 -185.73925781 330.05566406 C-186.42702261 328.84274307 -187.12129755 327.63348124 -187.82324219 326.42871094 C-198.52327046 308.02466231 -205.18082312 287.88741627 -209.80078125 267.18359375 C-209.96803711 266.4344873 -210.13529297 265.68538086 -210.30761719 264.91357422 C-222.38113525 208.84311776 -212.32932812 146.21329117 -181.17578125 97.93359375 C-179.42940463 95.31651743 -177.63441621 92.74016968 -175.80078125 90.18359375 C-175.38086914 89.59690918 -174.96095703 89.01022461 -174.52832031 88.40576172 C-168.94001986 80.69512858 -162.78663792 73.54058569 -156.21289062 66.66308594 C-155.27643565 65.68194535 -154.34535894 64.69564128 -153.41992188 63.70410156 C-136.53135576 45.63643246 -115.24862601 31.40937204 -92.80078125 21.18359375 C-92.06633789 20.84730957 -91.33189453 20.51102539 -90.57519531 20.16455078 C-61.64902774 7.07831815 -31.58891252 1.52587758 0 0 Z M-91.95703125 117 C-121.36562621 149.20799035 -127.18227033 192.30912467 -125.80078125 234.18359375 C-124.5416242 254.4031011 -118.6522894 274.03598114 -109.80078125 292.18359375 C-109.31867187 293.17617187 -108.8365625 294.16875 -108.33984375 295.19140625 C-94.27187028 322.47239347 -69.03504726 343.22033339 -39.93505859 352.5546875 C-25.88542744 356.69468405 -12.04647476 358.4213029 2.57421875 358.43359375 C3.65135132 358.43460587 3.65135132 358.43460587 4.75024414 358.43563843 C15.52919554 358.41953202 25.72506059 357.95352637 36.19921875 355.18359375 C36.83569336 355.02262207 37.47216797 354.86165039 38.12792969 354.69580078 C68.3537116 346.8958407 95.06113152 328.1441249 111.19921875 301.18359375 C133.43861833 262.79211096 137.86889991 215.06550174 126.79980469 172.41308594 C121.73116354 153.59730101 113.84743803 136.16621592 101.19921875 121.18359375 C100.3690625 120.19101562 99.53890625 119.1984375 98.68359375 118.17578125 C77.94536333 94.10235406 47.65004289 80.63573326 16.19921875 78.18359375 C-24.90543352 76.35388356 -63.0393731 86.55075744 -91.95703125 117 Z " fill="#000000" transform="translate(2523.80078125,880.81640625)"/>
<path d="M0 0 C1.00160156 0.84046875 2.00320313 1.6809375 3.03515625 2.546875 C24.7161976 21.25228833 39.04012517 49.53067766 42 78 C42 81.3 42 84.6 42 88 C10.98 88 -20.04 88 -52 88 C-53.98 80.08 -53.98 80.08 -56 72 C-63.3348489 56.70605974 -73.79931231 47.82515479 -89.63671875 41.97265625 C-108.0738056 36.64067643 -129.57635764 36.4559713 -146.9375 45.3125 C-157.94460649 52.14021643 -164.88116883 61.34517424 -168 74 C-170.28440244 85.88854508 -169.82453119 97.96318602 -163.45703125 108.5703125 C-161.7564317 110.86631647 -159.97442397 112.93601453 -158 115 C-157.42636719 115.60199219 -156.85273438 116.20398437 -156.26171875 116.82421875 C-143.05032209 129.41323698 -124.03731753 135.56329649 -107.0625 141.125 C-105.64383925 141.59549825 -104.22522064 142.06612361 -102.80664062 142.53686523 C-93.25732935 145.68822902 -83.65451891 148.64198159 -74.02709961 151.54443359 C-44.87792771 160.33648124 -13.50166375 169.80842974 10 190 C10.87527344 190.73863281 11.75054688 191.47726562 12.65234375 192.23828125 C32.33110539 209.37212033 44.94628717 232.76983906 47 259 C48.64047311 294.37145321 41.91213592 327.23068208 17.63671875 354.1484375 C16.76660156 355.08945313 15.89648438 356.03046875 15 357 C14.28457031 357.79664063 13.56914062 358.59328125 12.83203125 359.4140625 C-11.88996939 385.66669358 -50.69235848 399.35161827 -86.14500427 401.1061554 C-88.30935879 401.1626111 -90.47167204 401.19020814 -92.63671875 401.203125 C-93.43029282 401.21013931 -94.22386688 401.21715363 -95.04148865 401.22438049 C-97.59021755 401.24178778 -100.13871382 401.24823346 -102.6875 401.25 C-103.99615021 401.25101212 -103.99615021 401.25101212 -105.33123779 401.25204468 C-118.76711115 401.23554172 -131.7994134 400.70557914 -145 398 C-145.86641113 397.82839355 -146.73282227 397.65678711 -147.62548828 397.47998047 C-177.4310179 391.42801392 -203.24842023 379.23386109 -226 359 C-226.65613281 358.42894531 -227.31226562 357.85789062 -227.98828125 357.26953125 C-251.19331077 335.72595969 -259.30970831 304.4252505 -261 274 C-230.64 274 -200.28 274 -169 274 C-167.68 279.61 -166.36 285.22 -165 291 C-159.852226 305.72835339 -150.89117064 316.87582364 -136.6875 323.8125 C-126.24986278 328.0711024 -115.9061659 329.53956888 -104.6875 329.4375 C-103.51050537 329.42992676 -102.33351074 329.42235352 -101.12084961 329.41455078 C-83.74682604 329.08721237 -67.99407006 324.67437677 -55.1875 312.33984375 C-45.79347475 302.29159174 -42.38148587 290.68747803 -42.59765625 277.10327148 C-43.08014866 265.03136623 -47.83985693 254.05520799 -56.8046875 245.76953125 C-78.82021828 228.02391658 -107.43854427 221.44073805 -134.00756836 213.52001953 C-203.08888739 192.9179501 -203.08888739 192.9179501 -229 169 C-230.11955078 168.00226563 -230.11955078 168.00226563 -231.26171875 166.984375 C-251.5913926 147.97273501 -258.86961684 120.14909479 -260.12890625 93.24609375 C-260.82692792 59.78758823 -249.83110638 31.30001948 -227 7 C-226.484375 6.40832031 -225.96875 5.81664062 -225.4375 5.20703125 C-200.17493257 -22.48968981 -156.50309923 -32.09205683 -120.8671875 -33.83984375 C-78.91279591 -35.57734886 -32.88530848 -28.06467545 0 0 Z " fill="#000000" transform="translate(3094,915)"/>
<path d="M0 0 C233.75797373 0 233.75797373 0 279.09375 45.08203125 C303.84952333 71.55695551 310.93916672 106.72209872 310.12744141 141.78564453 C309.08271796 168.13589149 298.77910372 193.7715335 282 214 C281.28070312 214.87140625 280.56140625 215.7428125 279.8203125 216.640625 C254.76161297 245.71228353 215.34000597 259.12925881 178 262 C174.80505926 262.12017548 171.6163298 262.12745282 168.41943359 262.11352539 C167.50630716 262.11364593 166.59318073 262.11376646 165.6523838 262.11389065 C162.73437579 262.11315195 159.8164339 262.10557191 156.8984375 262.09765625 C155.08178742 262.09618359 153.26513692 262.09516488 151.44848633 262.09460449 C144.75731769 262.08938913 138.06615818 262.0754279 131.375 262.0625 C116.40125 262.041875 101.4275 262.02125 86 262 C86 315.79 86 369.58 86 425 C57.62 425 29.24 425 0 425 C0 284.75 0 144.5 0 0 Z M86 71 C86 111.26 86 151.52 86 193 C104.376875 193.061875 104.376875 193.061875 123.125 193.125 C128.88541748 193.15231201 128.88541748 193.15231201 134.76220703 193.18017578 C138.26402105 193.1868727 138.26402105 193.1868727 141.76583862 193.19088745 C143.30190191 193.19391922 144.83796105 193.20086931 146.37399292 193.21115112 C168.74485328 193.35315296 190.7689364 190.64350333 207.7109375 174.53515625 C218.83309646 162.2172703 222.38293552 145.67326532 222.21875 129.48046875 C221.16261644 112.67662937 216.95670708 97.42331206 204.375 85.515625 C188.07017487 72.31226117 169.17765541 70.68100833 148.98828125 70.8046875 C147.37121723 70.80763455 145.75415128 70.8096709 144.13708496 70.81079102 C138.19552721 70.82120172 132.25401052 70.84912404 126.3125 70.875 C106.3578125 70.936875 106.3578125 70.936875 86 71 Z " fill="#000000" transform="translate(1356,887)"/>
<path d="M0 0 C81.51 0 163.02 0 247 0 C247 23.1 247 46.2 247 70 C193.87 70 140.74 70 86 70 C86 104.65 86 139.3 86 175 C133.19 175 180.38 175 229 175 C229 197.77 229 220.54 229 244 C181.81 244 134.62 244 86 244 C86 280.63 86 317.26 86 355 C139.13 355 192.26 355 247 355 C247 378.1 247 401.2 247 425 C165.49 425 83.98 425 0 425 C0 284.75 0 144.5 0 0 Z " fill="#000000" transform="translate(1969,887)"/>
<path d="M0 0 C28.38 0 56.76 0 86 0 C86 140.25 86 280.5 86 425 C57.62 425 29.24 425 0 425 C0 284.75 0 144.5 0 0 Z " fill="#000000" transform="translate(1763,887)"/>
<path d="M0 0 C102.96 0 205.92 0 312 0 C312 25.08 312 50.16 312 76 C209.04 76 106.08 76 0 76 C0 50.92 0 25.84 0 0 Z " fill="#000000" transform="translate(936,1229)"/>
<path d="M0 0 C100.98 0 201.96 0 306 0 C306 25.08 306 50.16 306 76 C205.02 76 104.04 76 0 76 C0 50.92 0 25.84 0 0 Z " fill="#000000" transform="translate(936,893)"/>
<path d="M0 0 C93.39 0 186.78 0 283 0 C283 25.08 283 50.16 283 76 C189.61 76 96.22 76 0 76 C0 50.92 0 25.84 0 0 Z " fill="#000000" transform="translate(936,1057)"/>
</svg>
