<?xml version="1.0" encoding="UTF-8"?>
<svg version="1.1" xmlns="http://www.w3.org/2000/svg" width="672" height="672">
<path d="M0 0 C1.72719772 0.00323273 1.72719772 0.00323273 3.48928833 0.00653076 C19.98612043 0.05611685 36.16896367 0.31917469 52.4375 3.3125 C53.57477539 3.51649414 54.71205078 3.72048828 55.88378906 3.93066406 C111.90888335 14.21365625 164.91238324 36.42292858 209.4375 72.3125 C210.36433594 73.04726562 211.29117188 73.78203125 212.24609375 74.5390625 C230.05679782 88.83815258 247.58986325 105.11274884 261.4375 123.3125 C262.51848364 124.66854309 263.60205728 126.02252354 264.6875 127.375 C272.60596248 137.29983332 279.84086852 147.4645981 286.4375 158.3125 C286.88689941 159.05048828 287.33629883 159.78847656 287.79931641 160.54882812 C319.28130884 212.6800593 336.31776978 270.7276121 335.95898438 331.62792969 C335.93619562 335.53030107 335.94975892 339.43158055 335.97275543 343.33391476 C336.20521027 389.94960043 326.35339791 437.1105329 305.54394531 479.07470703 C304.37345694 481.44202751 303.24449817 483.8266881 302.1171875 486.21484375 C291.02078027 509.40331635 276.57333595 530.38368741 260.4375 550.3125 C260.01903809 550.83682617 259.60057617 551.36115234 259.16943359 551.90136719 C252.1312874 560.67227587 244.29761858 568.66059466 236.375 576.625 C235.61481064 577.3930899 235.61481064 577.3930899 234.83926392 578.17669678 C228.04450363 585.02597775 221.02558604 591.33315463 213.4375 597.3125 C212.68686279 597.91715088 211.93622559 598.52180176 211.1628418 599.14477539 C200.68132588 607.58333465 189.93530563 615.32066072 178.4375 622.3125 C177.69951172 622.76189941 176.96152344 623.21129883 176.20117188 623.67431641 C156.47508375 635.58687905 136.08986377 645.42987746 114.4375 653.3125 C113.58929688 653.62670898 112.74109375 653.94091797 111.8671875 654.26464844 C101.00859348 658.25152249 89.99953519 661.31641251 78.75 664 C77.61876709 664.27344238 76.48753418 664.54688477 75.32202148 664.82861328 C71.37433398 665.73458608 67.41311111 666.54132061 63.4375 667.3125 C62.57413025 667.48581848 61.7107605 667.65913696 60.82122803 667.83770752 C42.28560804 671.46044612 24.09404945 671.94095891 5.28808594 671.83398438 C1.24774993 671.81119555 -2.79153182 671.82475914 -6.83183193 671.84774494 C-25.76780051 671.93911172 -43.92307026 671.03582981 -62.5625 667.3125 C-63.31891785 667.16774231 -64.07533569 667.02298462 -64.85467529 666.87384033 C-69.09637076 666.05915584 -73.30023049 665.13241945 -77.5 664.125 C-78.73886963 663.83020752 -79.97773926 663.53541504 -81.25415039 663.23168945 C-129.26874082 651.44404186 -175.94146106 628.5834971 -213.5625 596.3125 C-215.01076172 595.13880859 -215.01076172 595.13880859 -216.48828125 593.94140625 C-224.74024138 587.18635447 -232.32345672 579.76661117 -239.875 572.25 C-240.38678802 571.74338837 -240.89857605 571.23677673 -241.4258728 570.71481323 C-248.27621401 563.91913521 -254.56882784 556.89076795 -260.5625 549.3125 C-261.46751365 548.21274989 -262.37461131 547.11470609 -263.28515625 546.01953125 C-276.47909894 529.69780916 -287.8725444 511.91471181 -297.5625 493.3125 C-297.90152344 492.67538086 -298.24054688 492.03826172 -298.58984375 491.38183594 C-340.32275453 412.8281566 -346.37007094 320.52575821 -321.375 235.875 C-315.80671655 217.72017498 -308.4545553 199.91151081 -299.52636719 183.14746094 C-298.53011639 181.25084974 -297.57909249 179.33604542 -296.6328125 177.4140625 C-285.81140137 155.7686358 -271.34894948 134.43133617 -254.79296875 116.71875 C-252.9686668 114.75067645 -251.21901817 112.75088778 -249.47265625 110.71484375 C-245.25762783 105.88368182 -240.77204793 101.33596851 -236.23925781 96.80395508 C-234.82330053 95.38581716 -233.41551711 93.95953335 -232.0078125 92.53320312 C-225.83870695 86.35120947 -219.40571802 80.73285032 -212.5625 75.3125 C-211.46281966 74.40740157 -210.36478079 73.50029884 -209.26953125 72.58984375 C-192.98320115 59.42451078 -175.21841269 47.82694375 -156.5625 38.3125 C-155.58506836 37.81153809 -154.60763672 37.31057617 -153.60058594 36.79443359 C-105.43819477 12.33134653 -53.95455722 -0.1815818 0 0 Z " fill="#333333" transform="translate(336.5625,0.6875)"/>
<path d="M0 0 C0.72201599 -0.00139984 1.44403198 -0.00279968 2.18792725 -0.00424194 C23.19804673 0.02877207 44.10690671 3.15562275 63.875 10.4375 C65.32971048 10.92363195 66.7855018 11.40653792 68.2421875 11.88671875 C92.43064842 20.06661284 114.29973919 33.14784249 133.34130859 50.07568359 C134.8591462 51.42342288 136.39170915 52.75283042 137.92578125 54.08203125 C174.96126085 86.61222553 197.51543659 135.76170762 201.875 184.4375 C202.17287592 189.70987117 202.26419142 194.97039877 202.25 200.25 C202.25012085 200.95250885 202.2502417 201.6550177 202.25036621 202.3788147 C202.20446311 221.34933982 200.07025839 240.42994895 193.875 258.4375 C193.39991805 259.92672535 192.92605312 261.41633926 192.453125 262.90625 C186.40303491 281.49490568 178.22422186 299.47130078 166.875 315.4375 C166.13507813 316.48035156 165.39515625 317.52320313 164.6328125 318.59765625 C160.38508822 324.41071837 155.86447546 329.85702656 150.98046875 335.14453125 C149.11291796 337.17839454 147.3351578 339.25897023 145.5625 341.375 C114.14541516 377.06651816 64.60719486 398.28047559 17.875 402.4375 C-25.146696 404.81712578 -67.23481151 396.41128579 -104.125 373.4375 C-105.68347656 372.47070312 -105.68347656 372.47070312 -107.2734375 371.484375 C-149.75570336 344.05488051 -178.63231374 303.6245738 -193.125 255.4375 C-193.44984375 254.43074219 -193.7746875 253.42398438 -194.109375 252.38671875 C-208.55822425 204.98564697 -199.89961427 149.9939479 -177.23828125 106.83203125 C-164.18049096 82.84798399 -146.52008526 61.39529545 -125.125 44.4375 C-124.15949219 43.6434375 -123.19398438 42.849375 -122.19921875 42.03125 C-87.99134779 14.56063444 -43.66171449 -0.00824644 0 0 Z " fill="#B7534F" transform="translate(336.125,135.5625)"/>
<path d="M0 0 C1.72719772 0.00323273 1.72719772 0.00323273 3.48928833 0.00653076 C19.98612043 0.05611685 36.16896367 0.31917469 52.4375 3.3125 C53.57477539 3.51649414 54.71205078 3.72048828 55.88378906 3.93066406 C111.90888335 14.21365625 164.91238324 36.42292858 209.4375 72.3125 C210.36433594 73.04726562 211.29117188 73.78203125 212.24609375 74.5390625 C230.05679782 88.83815258 247.58986325 105.11274884 261.4375 123.3125 C262.51848364 124.66854309 263.60205728 126.02252354 264.6875 127.375 C272.60596248 137.29983332 279.84086852 147.4645981 286.4375 158.3125 C286.88689941 159.05048828 287.33629883 159.78847656 287.79931641 160.54882812 C319.28130884 212.6800593 336.31776978 270.7276121 335.95898438 331.62792969 C335.93619562 335.53030107 335.94975892 339.43158055 335.97275543 343.33391476 C336.20521027 389.94960043 326.35339791 437.1105329 305.54394531 479.07470703 C304.37345694 481.44202751 303.24449817 483.8266881 302.1171875 486.21484375 C291.02078027 509.40331635 276.57333595 530.38368741 260.4375 550.3125 C260.01903809 550.83682617 259.60057617 551.36115234 259.16943359 551.90136719 C252.1312874 560.67227587 244.29761858 568.66059466 236.375 576.625 C235.61481064 577.3930899 235.61481064 577.3930899 234.83926392 578.17669678 C228.04450363 585.02597775 221.02558604 591.33315463 213.4375 597.3125 C212.68686279 597.91715088 211.93622559 598.52180176 211.1628418 599.14477539 C200.68132588 607.58333465 189.93530563 615.32066072 178.4375 622.3125 C177.69951172 622.76189941 176.96152344 623.21129883 176.20117188 623.67431641 C156.47508375 635.58687905 136.08986377 645.42987746 114.4375 653.3125 C113.58929688 653.62670898 112.74109375 653.94091797 111.8671875 654.26464844 C101.00859348 658.25152249 89.99953519 661.31641251 78.75 664 C77.61876709 664.27344238 76.48753418 664.54688477 75.32202148 664.82861328 C71.37433398 665.73458608 67.41311111 666.54132061 63.4375 667.3125 C62.57413025 667.48581848 61.7107605 667.65913696 60.82122803 667.83770752 C42.28560804 671.46044612 24.09404945 671.94095891 5.28808594 671.83398438 C1.24774993 671.81119555 -2.79153182 671.82475914 -6.83183193 671.84774494 C-25.76780051 671.93911172 -43.92307026 671.03582981 -62.5625 667.3125 C-63.31891785 667.16774231 -64.07533569 667.02298462 -64.85467529 666.87384033 C-69.09637076 666.05915584 -73.30023049 665.13241945 -77.5 664.125 C-78.73886963 663.83020752 -79.97773926 663.53541504 -81.25415039 663.23168945 C-129.26874082 651.44404186 -175.94146106 628.5834971 -213.5625 596.3125 C-215.01076172 595.13880859 -215.01076172 595.13880859 -216.48828125 593.94140625 C-224.74024138 587.18635447 -232.32345672 579.76661117 -239.875 572.25 C-240.38678802 571.74338837 -240.89857605 571.23677673 -241.4258728 570.71481323 C-248.27621401 563.91913521 -254.56882784 556.89076795 -260.5625 549.3125 C-261.46751365 548.21274989 -262.37461131 547.11470609 -263.28515625 546.01953125 C-276.47909894 529.69780916 -287.8725444 511.91471181 -297.5625 493.3125 C-297.90152344 492.67538086 -298.24054688 492.03826172 -298.58984375 491.38183594 C-340.32275453 412.8281566 -346.37007094 320.52575821 -321.375 235.875 C-315.80671655 217.72017498 -308.4545553 199.91151081 -299.52636719 183.14746094 C-298.53011639 181.25084974 -297.57909249 179.33604542 -296.6328125 177.4140625 C-285.81140137 155.7686358 -271.34894948 134.43133617 -254.79296875 116.71875 C-252.9686668 114.75067645 -251.21901817 112.75088778 -249.47265625 110.71484375 C-245.25762783 105.88368182 -240.77204793 101.33596851 -236.23925781 96.80395508 C-234.82330053 95.38581716 -233.41551711 93.95953335 -232.0078125 92.53320312 C-225.83870695 86.35120947 -219.40571802 80.73285032 -212.5625 75.3125 C-211.46281966 74.40740157 -210.36478079 73.50029884 -209.26953125 72.58984375 C-192.98320115 59.42451078 -175.21841269 47.82694375 -156.5625 38.3125 C-155.58506836 37.81153809 -154.60763672 37.31057617 -153.60058594 36.79443359 C-105.43819477 12.33134653 -53.95455722 -0.1815818 0 0 Z M-191.5625 100.3125 C-192.43648438 101.00214844 -193.31046875 101.69179687 -194.2109375 102.40234375 C-202.21668311 108.88468633 -209.51877104 116.05242884 -216.8125 123.3125 C-217.32596985 123.82079346 -217.8394397 124.32908691 -218.36846924 124.8527832 C-225.23521125 131.6649598 -231.58818557 138.6873685 -237.5625 146.3125 C-238.09987793 146.99054688 -238.63725586 147.66859375 -239.19091797 148.3671875 C-271.94146936 190.08371114 -294.70687896 241.35050545 -301.28613281 294.12304688 C-301.55700684 296.26898174 -301.86760562 298.40660368 -302.1796875 300.546875 C-303.74231686 312.28277821 -303.77399314 324.05633487 -303.8125 335.875 C-303.81776703 336.69295044 -303.82303406 337.51090088 -303.82846069 338.3536377 C-303.97415955 367.6534213 -299.67743231 397.45795326 -290.5625 425.3125 C-290.24829102 426.3010498 -289.93408203 427.28959961 -289.61035156 428.30810547 C-278.01687737 464.58681342 -260.41298394 497.65334328 -236.5625 527.3125 C-235.75425781 528.32699219 -234.94601563 529.34148437 -234.11328125 530.38671875 C-227.40243456 538.59738562 -219.97150557 546.11406204 -212.5 553.625 C-211.73994659 554.39295395 -211.73994659 554.39295395 -210.96453857 555.17642212 C-204.17175821 562.02370618 -197.16522695 568.3542897 -189.5625 574.3125 C-188.88437256 574.8499585 -188.20624512 575.38741699 -187.50756836 575.94116211 C-147.03650439 607.71278862 -98.38099192 629.14372288 -47.5625 637.3125 C-46.18795654 637.53679687 -46.18795654 637.53679687 -44.78564453 637.765625 C-2.0505032 644.42751164 46.18202739 642.02862207 87.30517578 628.03710938 C89.75711073 627.20388944 92.22035804 626.40854834 94.68359375 625.609375 C149.55967961 607.47636642 202.09314672 573.69762376 237.4375 527.3125 C238.20707031 526.34828125 238.97664062 525.3840625 239.76953125 524.390625 C250.70872492 510.61936907 260.2174689 495.85179029 268.4375 480.3125 C268.77201172 479.6819873 269.10652344 479.05147461 269.45117188 478.40185547 C306.51661424 407.90165003 315.35195051 324.55074152 292.02734375 248.1484375 C274.21390498 191.00496459 239.4799679 135.91970982 191.4375 99.3125 C189.99117187 98.15814453 189.99117187 98.15814453 188.515625 96.98046875 C159.59263469 74.00105929 127.26779446 58.17396141 92.4375 46.3125 C91.68807129 46.05098145 90.93864258 45.78946289 90.16650391 45.52001953 C-2.05464519 13.42857402 -111.20543218 36.69160723 -191.5625 100.3125 Z " fill="#6B8DBE" transform="translate(336.5625,0.6875)"/>
<path d="M0 0 C31.96679931 25.71888153 54.68420087 63.09108554 59.28198242 104.29223633 C63.05699058 145.09893062 53.24704762 186.09001493 27.73730469 218.64916992 C23.5663487 223.6509602 19.23644534 228.50714113 14.79980469 233.27416992 C14.17589844 233.9522168 13.55199219 234.63026367 12.90917969 235.32885742 C0.37565388 248.44166383 -16.35836196 259.57829278 -33.20019531 266.27416992 C-36.20019531 265.27416992 -36.20019531 265.27416992 -37.14337158 263.4624176 C-37.41123474 262.6675444 -37.6790979 261.8726712 -37.95507812 261.05371094 C-38.2673233 260.14682526 -38.57956848 259.23993958 -38.90127563 258.30557251 C-39.39728775 256.80696182 -39.39728775 256.80696182 -39.90332031 255.27807617 C-40.25840668 254.23791351 -40.61349304 253.19775085 -40.9793396 252.12606812 C-42.1468891 248.69976851 -43.29838423 245.26828874 -44.45019531 241.83666992 C-46.06255603 237.08762675 -47.68257163 232.34120201 -49.30175781 227.59448242 C-49.70965546 226.39478317 -50.1175531 225.19508392 -50.53781128 223.95903015 C-53.20095123 216.14152036 -55.92825274 208.35003433 -58.72363281 200.57885742 C-59.07458008 199.60321335 -59.42552734 198.62756927 -59.78710938 197.62236023 C-61.12560988 193.90834035 -62.46743071 190.19556664 -63.81652832 186.48538208 C-64.73197799 183.96708299 -65.64214367 181.44692502 -66.55175781 178.92651367 C-66.82273285 178.1883139 -67.09370789 177.45011414 -67.37289429 176.68954468 C-68.4330711 173.74446256 -69.20019531 171.43070645 -69.20019531 168.27416992 C-67.04003906 166.51245117 -67.04003906 166.51245117 -64.13769531 164.58666992 C-52.52785917 156.38536259 -45.62079001 145.10219446 -42.20019531 131.27416992 C-41.78353351 127.82438578 -41.72290608 124.43383717 -41.76269531 120.96166992 C-41.76954346 120.0403125 -41.7763916 119.11895508 -41.78344727 118.16967773 C-41.95277507 110.96278193 -43.07750949 104.82770136 -46.20019531 98.27416992 C-46.55082031 97.49299805 -46.90144531 96.71182617 -47.26269531 95.90698242 C-53.5555309 83.277611 -64.60181977 74.022451 -77.68066406 69.09838867 C-78.51210938 68.82639648 -79.34355469 68.5544043 -80.20019531 68.27416992 C-81.28558594 67.91581055 -82.37097656 67.55745117 -83.48925781 67.18823242 C-87.50945847 66.19799352 -91.27409318 65.92877614 -95.38769531 65.96166992 C-96.50362061 65.97012939 -96.50362061 65.97012939 -97.64208984 65.97875977 C-113.6884696 66.32812048 -126.1060254 72.84795619 -137.20019531 84.27416992 C-146.15310812 94.34619683 -150.57089963 105.80343172 -150.45019531 119.21166992 C-150.45792969 120.06696289 -150.46566406 120.92225586 -150.47363281 121.8034668 C-150.43040753 135.9705521 -145.07299598 149.09444281 -135.20019531 159.27416992 C-129.57584031 164.30567562 -129.57584031 164.30567562 -123.20019531 168.27416992 C-125.31335915 176.53774791 -127.93184376 184.55431781 -130.77050781 192.59448242 C-131.21578765 193.86397863 -131.66075711 195.13358374 -132.10543823 196.40328979 C-133.03609085 199.05816738 -133.96917367 201.71217236 -134.90429688 204.36547852 C-136.07384782 207.68396779 -137.2393388 211.0038622 -138.40321732 214.32434464 C-142.99569432 227.42543047 -147.62449037 240.51334934 -152.31738281 253.57885742 C-152.69629669 254.63541534 -153.07521057 255.69197327 -153.46560669 256.7805481 C-153.98560745 258.22347733 -153.98560745 258.22347733 -154.51611328 259.69555664 C-154.81871063 260.53593475 -155.12130798 261.37631287 -155.43307495 262.24215698 C-156.20019531 264.27416992 -156.20019531 264.27416992 -157.20019531 266.27416992 C-175.819686 263.64924172 -194.31618156 245.88090935 -207.20019531 233.27416992 C-207.86148438 232.6631543 -208.52277344 232.05213867 -209.20410156 231.42260742 C-237.00465812 205.23461215 -251.19424007 164.95237158 -252.43847656 127.53979492 C-253.23639854 84.27310199 -237.60420144 44.63179242 -207.60424805 13.3972168 C-152.67408068 -42.57885339 -61.66649383 -48.33260741 0 0 Z " fill="#333333" transform="translate(433.2001953125,213.725830078125)"/>
<path d="M0 0 C5.40180724 4.51451958 10.45830288 9.27535841 15.4375 14.25 C16.16904297 14.96929688 16.90058594 15.68859375 17.65429688 16.4296875 C18.68973633 17.46222656 18.68973633 17.46222656 19.74609375 18.515625 C20.68473267 19.44810059 20.68473267 19.44810059 21.64233398 20.39941406 C23 22 23 22 23 24 C21.35791016 25.35351562 21.35791016 25.35351562 19.0390625 26.90625 C18.1840918 27.48036621 17.32912109 28.05448242 16.44824219 28.64599609 C15.51657227 29.25781738 14.58490234 29.86963867 13.625 30.5 C12.67270508 31.1285791 11.72041016 31.7571582 10.73925781 32.40478516 C2.06245483 38.0685286 -6.79266117 43.25130812 -16 48 C-16.66854004 48.34724121 -17.33708008 48.69448242 -18.02587891 49.05224609 C-37.74250731 59.15925154 -59.14935147 65.96055429 -80.625 71.1875 C-81.70523437 71.46013672 -82.78546875 71.73277344 -83.8984375 72.01367188 C-84.95546875 72.27083984 -86.0125 72.52800781 -87.1015625 72.79296875 C-88.04338379 73.0252417 -88.98520508 73.25751465 -89.95556641 73.49682617 C-93 74 -93 74 -101 74 C-101 63.44 -101 52.88 -101 42 C-96.606875 41.05125 -92.21375 40.1025 -87.6875 39.125 C-66.81754642 34.38521541 -46.78874695 27.31233662 -28 17 C-26.46238866 16.17550317 -24.92462042 15.3512989 -23.38671875 14.52734375 C-15.24702152 10.12323223 -7.3856306 5.60417196 0 0 Z " fill="#CEDFF0" transform="translate(475,528)"/>
<path d="M0 0 C1.35351562 1.64208984 1.35351562 1.64208984 2.90625 3.9609375 C3.48028564 4.81574707 4.05432129 5.67055664 4.64575195 6.55126953 C5.25765381 7.48310059 5.86955566 8.41493164 6.5 9.375 C7.1293042 10.32874512 7.7586084 11.28249023 8.40698242 12.26513672 C14.06965591 20.94266286 19.25614499 29.79002849 24 39 C24.37962891 39.73331543 24.75925781 40.46663086 25.15039062 41.22216797 C34.35908156 59.23559109 41.00413194 78.16562147 46 97.75 C46.43626709 99.44370728 46.43626709 99.44370728 46.88134766 101.17163086 C47.14737793 102.26483643 47.4134082 103.35804199 47.6875 104.484375 C48.03361328 105.90314941 48.03361328 105.90314941 48.38671875 107.35058594 C49.31077026 112.84928098 49.57235585 118.44062604 50 124 C39.44 124 28.88 124 18 124 C17.175 120.205 16.35 116.41 15.5 112.5 C8.07087511 79.80028121 -4.99915165 50.54592261 -24 23 C-19.48548042 17.59819276 -14.72464159 12.54169712 -9.75 7.5625 C-9.03070312 6.83095703 -8.31140625 6.09941406 -7.5703125 5.34570312 C-6.88195312 4.65541016 -6.19359375 3.96511719 -5.484375 3.25390625 C-4.86272461 2.62814697 -4.24107422 2.0023877 -3.60058594 1.35766602 C-2 0 -2 0 0 0 Z " fill="#CEDFF0" transform="translate(552,176)"/>
<path d="M0 0 C29.34735812 2.8071386 56.55044557 12.13677159 83 25 C83.7312207 25.35529785 84.46244141 25.7105957 85.21582031 26.07666016 C96.08892831 31.4348141 106.11631276 37.82020934 116.09130859 44.68994141 C118.70978226 46.48716956 121.35303047 48.24508004 124 50 C122.4608199 53.66752005 120.24514548 55.98580573 117.4296875 58.765625 C116.53378906 59.65507812 115.63789063 60.54453125 114.71484375 61.4609375 C113.77769531 62.38132813 112.84054687 63.30171875 111.875 64.25 C110.92011363 65.19484856 109.96568141 66.14015633 109.01171875 67.0859375 C106.67890913 69.39518338 104.34155914 71.69963203 102 74 C98.35937388 71.9574669 94.7707079 69.88055258 91.2578125 67.625 C62.78405512 49.43806493 32.80720008 39.0301143 0 32 C0 21.44 0 10.88 0 0 Z " fill="#CEDFF0" transform="translate(374,72)"/>
<path d="M0 0 C10.56 0 21.12 0 32 0 C34 9 34 9 34.75390625 12.4296875 C41.63152871 41.73433972 52.96682522 68.59944713 69 94 C69.95245611 95.52304171 70.90431346 97.04645808 71.85546875 98.5703125 C72.57025401 99.71357824 73.28507438 100.85682203 74 102 C70.90984779 105.13949141 67.81325304 108.27243757 64.71044922 111.39941406 C63.65525491 112.4646826 62.60186036 113.53173697 61.55029297 114.60058594 C60.04080273 116.13426216 58.52501301 117.66145568 57.0078125 119.1875 C56.09660645 120.10917969 55.18540039 121.03085937 54.24658203 121.98046875 C52 124 52 124 50 124 C48.63061523 122.32617188 48.63061523 122.32617188 47.05859375 119.96875 C46.47948242 119.10378906 45.90037109 118.23882812 45.30371094 117.34765625 C44.68786133 116.40792969 44.07201172 115.46820313 43.4375 114.5 C42.80489258 113.53964844 42.17228516 112.57929688 41.52050781 111.58984375 C29.15020625 92.64013141 18.62843046 72.52782188 11.63696289 50.95581055 C11.19537258 49.5998964 10.74329635 48.24736973 10.28295898 46.89770508 C5.17085878 31.89346685 0 15.94468126 0 0 Z " fill="#CEDFF0" transform="translate(72,374)"/>
<path d="M0 0 C3.66752005 1.5391801 5.98580573 3.75485452 8.765625 6.5703125 C9.65507812 7.46621094 10.54453125 8.36210937 11.4609375 9.28515625 C12.38132813 10.22230469 13.30171875 11.15945312 14.25 12.125 C15.19484856 13.07988637 16.14015633 14.03431859 17.0859375 14.98828125 C19.39518338 17.32109087 21.69963203 19.65844086 24 22 C21.62628404 26.22597488 19.16704115 30.35836426 16.55053711 34.43774414 C3.7628411 54.44767667 -6.36796783 75.83057473 -12 99 C-12.24379395 99.99515625 -12.48758789 100.9903125 -12.73876953 102.015625 C-14.52573046 109.33636642 -16.26515882 116.66635318 -18 124 C-28.56 124 -39.12 124 -50 124 C-50 116.09151213 -48.86780357 109.73601228 -47.0625 102.125 C-46.90661407 101.46694366 -46.75072815 100.80888733 -46.59011841 100.13088989 C-37.84247505 63.52393406 -21.85127399 30.53782982 0 0 Z " fill="#CEDFF0" transform="translate(122,176)"/>
<path d="M0 0 C0 10.56 0 21.12 0 32 C-6.80625 33.5159375 -6.80625 33.5159375 -13.75 35.0625 C-44.99010804 42.25632304 -75.20884336 54.63496086 -101 74 C-106.40180724 69.48548042 -111.45830288 64.72464159 -116.4375 59.75 C-117.16904297 59.03070313 -117.90058594 58.31140625 -118.65429688 57.5703125 C-119.34458984 56.88195312 -120.03488281 56.19359375 -120.74609375 55.484375 C-121.37185303 54.86272461 -121.9976123 54.24107422 -122.64233398 53.60058594 C-124 52 -124 52 -124 50 C-122.35791016 48.64648437 -122.35791016 48.64648437 -120.0390625 47.09375 C-119.18441406 46.51979492 -118.32976562 45.94583984 -117.44921875 45.35449219 C-116.05123047 44.43651855 -116.05123047 44.43651855 -114.625 43.5 C-113.19220703 42.55495605 -113.19220703 42.55495605 -111.73046875 41.59082031 C-103.04905907 35.92715164 -94.20317674 30.7624282 -85 26 C-84.22849609 25.59330078 -83.45699219 25.18660156 -82.66210938 24.76757812 C-58.55667044 12.17459821 -27.51421118 0 0 0 Z " fill="#CEDFF0" transform="translate(300,72)"/>
<path d="M0 0 C10.56 0 21.12 0 32 0 C29.1928614 29.34735812 19.86322841 56.55044557 7 83 C6.64470215 83.7312207 6.2894043 84.46244141 5.92333984 85.21582031 C0.5651859 96.08892831 -5.82020934 106.11631276 -12.68994141 116.09130859 C-14.48716956 118.70978226 -16.24508004 121.35303047 -18 124 C-21.66752005 122.4608199 -23.98580573 120.24514548 -26.765625 117.4296875 C-27.65507813 116.53378906 -28.54453125 115.63789063 -29.4609375 114.71484375 C-30.38132812 113.77769531 -31.30171875 112.84054687 -32.25 111.875 C-33.19484856 110.92011363 -34.14015633 109.96568141 -35.0859375 109.01171875 C-37.39518338 106.67890913 -39.69963203 104.34155914 -42 102 C-40.01986071 98.46822536 -38.02184311 94.98087547 -35.80859375 91.58984375 C-20.43577759 68.02100547 -8.75256083 41.60678712 -3 14 C-2.01 9.38 -1.02 4.76 0 0 Z " fill="#CEDFF0" transform="translate(570,374)"/>
<path d="M0 0 C1.01815796 0.65572998 1.01815796 0.65572998 2.05688477 1.32470703 C33.90066436 21.72742627 65.18034246 33.79925809 102 42 C102 52.56 102 63.12 102 74 C96.12682666 74 92.28810947 73.83542132 86.80859375 72.53125 C86.15014969 72.37582733 85.49170563 72.22040466 84.81330872 72.06027222 C82.68485926 71.55238244 80.56093479 71.02844286 78.4375 70.5 C77.70358032 70.31882629 76.96966064 70.13765259 76.21350098 69.95098877 C40.26681153 61.02825244 8.09768513 45.53632946 -22 24 C-20.4608199 20.33247995 -18.24514548 18.01419427 -15.4296875 15.234375 C-14.08583984 13.90019531 -14.08583984 13.90019531 -12.71484375 12.5390625 C-11.77769531 11.61867188 -10.84054688 10.69828125 -9.875 9.75 C-8.92011363 8.80515144 -7.96568141 7.85984367 -7.01171875 6.9140625 C-4.67890913 4.60481662 -2.34155914 2.30036797 0 0 Z " fill="#CEDFF0" transform="translate(198,528)"/>
</svg>
