<?xml version="1.0" encoding="UTF-8"?>
<svg id="Calque_1" data-name="Calque 1" xmlns="http://www.w3.org/2000/svg" viewBox="0 0 2160 552.89">
  <defs>
    <style>
      .cls-1 {
        fill: #32a4ef;
      }

      .cls-2 {
        fill: #262626;
      }

      .cls-3 {
        fill: #ed4646;
      }
    </style>
  </defs>
  <g>
    <path class="cls-2" d="M966.67,316.95h-192.28c1.52,20.1,8.98,36.24,22.38,48.41,13.4,12.18,29.84,18.27,49.33,18.27,28.01,0,47.8-11.72,59.37-35.17h56.18c-7.61,23.14-21.39,42.1-41.33,56.86-19.95,14.77-44.69,22.15-74.22,22.15-24.06,0-45.6-5.4-64.63-16.21-19.03-10.8-33.96-26.03-44.76-45.67-10.81-19.64-16.21-42.4-16.21-68.28s5.25-48.64,15.75-68.28c10.5-19.64,25.27-34.78,44.3-45.44,19.02-10.65,40.88-15.99,65.54-15.99s44.91,5.18,63.48,15.53c18.57,10.36,33.04,24.89,43.39,43.62,10.35,18.72,15.53,40.27,15.53,64.63,0,9.44-.61,17.97-1.83,25.57ZM914.15,274.94c-.3-19.18-7.16-34.55-20.55-46.13-13.4-11.57-29.99-17.35-49.78-17.35-17.97,0-33.34,5.71-46.13,17.13-12.79,11.42-20.4,26.87-22.84,46.36h139.3Z"/>
    <path class="cls-2" d="M1122.86,295.95l81.3,127.42h-58.92l-54.35-85.41-51.15,85.41h-54.35l81.29-123.77-81.29-127.88h58.92l54.35,85.41,51.15-85.41h54.35l-81.3,124.23Z"/>
    <path class="cls-2" d="M1467.22,316.95h-192.28c1.52,20.1,8.98,36.24,22.38,48.41,13.4,12.18,29.84,18.27,49.33,18.27,28.01,0,47.8-11.72,59.37-35.17h56.18c-7.61,23.14-21.39,42.1-41.33,56.86-19.95,14.77-44.69,22.15-74.22,22.15-24.06,0-45.6-5.4-64.63-16.21-19.03-10.8-33.96-26.03-44.76-45.67-10.81-19.64-16.21-42.4-16.21-68.28s5.25-48.64,15.75-68.28c10.5-19.64,25.27-34.78,44.3-45.44,19.02-10.65,40.88-15.99,65.54-15.99s44.91,5.18,63.48,15.53c18.57,10.36,33.04,24.89,43.39,43.62,10.35,18.72,15.53,40.27,15.53,64.63,0,9.44-.61,17.97-1.83,25.57ZM1414.7,274.94c-.3-19.18-7.16-34.55-20.55-46.13-13.4-11.57-29.99-17.35-49.78-17.35-17.97,0-33.34,5.71-46.13,17.13-12.79,11.42-20.4,26.87-22.84,46.36h139.3Z"/>
    <path class="cls-2" d="M1668.85,179.26c15.07,7.76,26.87,17.43,35.39,29v-36.54h52.52v231.4c0,23.14-4.87,43.77-14.61,61.88-9.75,18.11-23.83,32.35-42.24,42.7-18.43,10.35-40.42,15.53-66,15.53-34.1,0-62.42-7.99-84.95-23.98-22.54-15.99-35.32-37.68-38.36-65.08h51.61c3.95,13.09,12.4,23.67,25.35,31.74,12.94,8.06,28.39,12.1,46.35,12.1,21.01,0,37.98-6.39,50.92-19.18,12.94-12.79,19.41-31.36,19.41-55.72v-17.66c-8.83,11.87-20.78,21.85-35.85,29.91-15.07,8.06-32.2,12.1-51.38,12.1-21.92,0-41.95-5.55-60.06-16.67-18.12-11.11-32.43-26.64-42.93-46.58-10.5-19.94-15.75-42.55-15.75-67.82s5.25-47.65,15.75-67.14c10.5-19.48,24.81-34.63,42.93-45.44,18.11-10.8,38.14-16.21,60.06-16.21,19.48,0,36.76,3.88,51.84,11.65ZM1693.52,252.1c-7.16-12.79-16.52-22.53-28.09-29.23-11.57-6.69-24.05-10.05-37.45-10.05s-25.88,3.28-37.45,9.82c-11.57,6.55-20.94,16.14-28.09,28.77-7.16,12.64-10.73,27.63-10.73,44.99s3.57,32.58,10.73,45.67c7.15,13.1,16.59,23.06,28.32,29.91,11.72,6.85,24.13,10.28,37.22,10.28s25.87-3.35,37.45-10.05c11.57-6.69,20.93-16.51,28.09-29.46,7.15-12.94,10.73-28.09,10.73-45.44s-3.58-32.43-10.73-45.21Z"/>
    <path class="cls-2" d="M1865.47,411.27c-19.18-10.8-34.25-26.03-45.21-45.67-10.96-19.64-16.44-42.4-16.44-68.28s5.63-48.26,16.9-68.05c11.26-19.79,26.64-35.01,46.13-45.67,19.48-10.65,41.25-15.99,65.31-15.99s45.82,5.33,65.31,15.99c19.48,10.66,34.86,25.88,46.13,45.67,11.26,19.8,16.9,42.47,16.9,68.05s-5.79,48.26-17.35,68.05c-11.57,19.8-27.33,35.1-47.27,45.9-19.94,10.81-41.95,16.21-65.99,16.21s-45.22-5.4-64.4-16.21ZM1967.54,372.67c11.72-6.39,21.24-15.98,28.54-28.77,7.31-12.79,10.96-28.32,10.96-46.58s-3.5-33.72-10.5-46.36c-7.01-12.63-16.29-22.15-27.86-28.54-11.58-6.39-24.06-9.59-37.45-9.59s-25.8,3.2-37.22,9.59c-11.42,6.39-20.48,15.91-27.18,28.54-6.7,12.64-10.05,28.09-10.05,46.36,0,27.1,6.92,48.03,20.78,62.8,13.85,14.77,31.29,22.15,52.29,22.15,13.39,0,25.95-3.2,37.68-9.59Z"/>
    <path class="cls-2" d="M2159.58,71.85v351.52h-52.07V71.85h52.07Z"/>
  </g>
  <g>
    <path class="cls-1" d="M272.93,54.41L266.97,0c-70.26,7.61-133.25,39.47-180.42,87.04l38.87,38.53c38.56-38.9,90.06-64.94,147.51-71.17Z"/>
    <path class="cls-1" d="M67.7,378.36l-51.74,17.87c22.59,65.42,67.16,120.58,124.89,156.66l28.96-46.44c-47.2-29.5-83.64-74.6-102.11-128.08Z"/>
    <path class="cls-1" d="M54.31,298.28c0-48.29,13.96-93.32,38.06-131.28l-46.24-29.29C16.66,184.14-.42,239.21-.42,298.28c0,11.75.7,23.34,2.01,34.75l54.36-6.34c-1.07-9.32-1.65-18.8-1.65-28.41Z"/>
    <path class="cls-1" d="M512.72,87.04C465.55,39.47,402.57,7.61,332.3,0l-5.96,54.41c57.45,6.22,108.95,32.27,147.51,71.17l38.87-38.53Z"/>
    <path class="cls-3" d="M487.07,363c4.6-13.33,7.82-27.31,9.49-41.76.87-7.53,1.33-15.19,1.33-22.96,0-39.03-11.28-75.41-30.76-106.09-7.69-12.11-16.65-23.33-26.71-33.47-31.16-31.44-72.78-52.48-119.21-57.51-7.09-.77-14.29-1.17-21.58-1.17s-14.49.41-21.58,1.17c-46.43,5.03-88.04,26.08-119.21,57.51-10.05,10.14-19.02,21.36-26.71,33.47-19.47,30.68-30.76,67.07-30.76,106.09,0,7.77.46,15.42,1.33,22.96,1.67,14.45,4.88,28.43,9.49,41.76,14.92,43.22,44.37,79.67,82.52,103.51l51.47-82.53c-19.43-12.15-34.42-30.71-42.03-52.73-2.35-6.79-3.99-13.91-4.84-21.27-.44-3.84-.7-7.74-.7-11.69,0-19.88,5.77-38.41,15.69-54.04,3.92-6.17,8.47-11.9,13.59-17.06,15.88-16.02,37.08-26.73,60.73-29.3,3.61-.39,7.28-.61,10.99-.61s7.38.22,10.99.61c23.65,2.56,44.85,13.28,60.73,29.3,5.12,5.17,9.67,10.89,13.59,17.06,9.92,15.63,15.69,34.16,15.69,54.04,0,3.96-.25,7.86-.7,11.69-.85,7.36-2.49,14.48-4.84,21.27-7.6,22.02-22.6,40.58-42.03,52.73l51.47,82.53c38.14-23.84,67.59-60.28,82.52-103.51Z"/>
    <path class="cls-1" d="M553.14,137.71l-46.24,29.29c24.1,37.96,38.06,82.99,38.06,131.28,0,9.61-.57,19.09-1.65,28.41l54.36,6.34c1.32-11.4,2.01-22.99,2.01-34.75,0-59.07-17.08-114.14-46.55-160.57Z"/>
    <path class="cls-1" d="M429.46,506.44l28.96,46.44c57.73-36.08,102.3-91.24,124.89-156.66l-51.74-17.87c-18.47,53.49-54.91,98.58-102.11,128.08Z"/>
  </g>
</svg>