<svg xmlns="http://www.w3.org/2000/svg" xmlns:xlink="http://www.w3.org/1999/xlink" width="1920" zoomAndPan="magnify" viewBox="0 0 1440 809.999993" height="1080" preserveAspectRatio="xMidYMid meet" version="1.0"><defs><g/></defs><g fill="#ff2300" fill-opacity="1"><g transform="translate(48.257817, 581.624991)"><g><path d="M 41.0625 0 L 41.0625 -326.328125 L 110.265625 -326.328125 L 110.265625 -57.140625 L 242.625 -57.140625 L 242.625 0 Z M 41.0625 0 "/></g></g><g transform="translate(306.506646, 581.624991)"><g><path d="M 89.953125 -125.21875 C 89.953125 -100.519531 94.003906 -81.84375 102.109375 -69.1875 C 110.222656 -56.539062 123.429688 -50.21875 141.734375 -50.21875 C 159.890625 -50.21875 172.945312 -56.503906 180.90625 -69.078125 C 188.863281 -81.648438 192.84375 -100.363281 192.84375 -125.21875 C 192.84375 -149.914062 188.828125 -168.441406 180.796875 -180.796875 C 172.765625 -193.148438 159.597656 -199.328125 141.296875 -199.328125 C 123.140625 -199.328125 110.039062 -193.1875 102 -180.90625 C 93.96875 -168.632812 89.953125 -150.070312 89.953125 -125.21875 Z M 262.484375 -125.21875 C 262.484375 -84.59375 251.769531 -52.820312 230.34375 -29.90625 C 208.914062 -6.988281 179.082031 4.46875 140.84375 4.46875 C 116.882812 4.46875 95.753906 -0.773438 77.453125 -11.265625 C 59.148438 -21.765625 45.085938 -36.832031 35.265625 -56.46875 C 25.441406 -76.113281 20.53125 -99.03125 20.53125 -125.21875 C 20.53125 -165.988281 31.171875 -197.679688 52.453125 -220.296875 C 73.734375 -242.921875 103.644531 -254.234375 142.1875 -254.234375 C 166.144531 -254.234375 187.273438 -249.023438 205.578125 -238.609375 C 223.878906 -228.191406 237.9375 -213.234375 247.75 -193.734375 C 257.570312 -174.242188 262.484375 -151.40625 262.484375 -125.21875 Z M 262.484375 -125.21875 "/></g></g><g transform="translate(589.531292, 581.624991)"><g><path d="M 252.890625 -249.546875 L 252.890625 -214.953125 L 213.828125 -204.90625 C 220.972656 -193.738281 224.546875 -181.238281 224.546875 -167.40625 C 224.546875 -140.625 215.207031 -119.753906 196.53125 -104.796875 C 177.851562 -89.835938 151.925781 -82.359375 118.75 -82.359375 L 106.46875 -83.03125 L 96.421875 -84.15625 C 89.429688 -78.789062 85.9375 -72.835938 85.9375 -66.296875 C 85.9375 -56.472656 98.4375 -51.5625 123.4375 -51.5625 L 165.84375 -51.5625 C 193.21875 -51.5625 214.082031 -45.679688 228.4375 -33.921875 C 242.800781 -22.171875 249.984375 -4.910156 249.984375 17.859375 C 249.984375 47.023438 237.816406 69.640625 213.484375 85.703125 C 189.160156 101.773438 154.234375 109.8125 108.703125 109.8125 C 73.878906 109.8125 47.28125 103.75 28.90625 91.625 C 10.53125 79.5 1.34375 62.5 1.34375 40.625 C 1.34375 25.59375 6.03125 13.015625 15.40625 2.890625 C 24.78125 -7.222656 38.539062 -14.4375 56.6875 -18.75 C 49.695312 -21.726562 43.597656 -26.601562 38.390625 -33.375 C 33.179688 -40.144531 30.578125 -47.320312 30.578125 -54.90625 C 30.578125 -64.425781 33.328125 -72.347656 38.828125 -78.671875 C 44.335938 -85.003906 52.300781 -91.21875 62.71875 -97.3125 C 49.625 -102.96875 39.242188 -112.046875 31.578125 -124.546875 C 23.921875 -137.046875 20.09375 -151.78125 20.09375 -168.75 C 20.09375 -195.976562 28.945312 -217.03125 46.65625 -231.90625 C 64.363281 -246.789062 89.660156 -254.234375 122.546875 -254.234375 C 129.535156 -254.234375 137.828125 -253.597656 147.421875 -252.328125 C 157.023438 -251.066406 163.164062 -250.140625 165.84375 -249.546875 Z M 60.265625 35.265625 C 60.265625 44.640625 64.765625 52.003906 73.765625 57.359375 C 82.765625 62.722656 95.378906 65.40625 111.609375 65.40625 C 136.003906 65.40625 155.117188 62.054688 168.953125 55.359375 C 182.796875 48.660156 189.71875 39.507812 189.71875 27.90625 C 189.71875 18.53125 185.625 12.054688 177.4375 8.484375 C 169.257812 4.910156 156.613281 3.125 139.5 3.125 L 104.234375 3.125 C 91.734375 3.125 81.28125 6.0625 72.875 11.9375 C 64.46875 17.820312 60.265625 25.597656 60.265625 35.265625 Z M 85.046875 -167.84375 C 85.046875 -154.300781 88.128906 -143.585938 94.296875 -135.703125 C 100.472656 -127.816406 109.890625 -123.875 122.546875 -123.875 C 135.335938 -123.875 144.707031 -127.816406 150.65625 -135.703125 C 156.613281 -143.585938 159.59375 -154.300781 159.59375 -167.84375 C 159.59375 -197.90625 147.242188 -212.9375 122.546875 -212.9375 C 97.546875 -212.9375 85.046875 -197.90625 85.046875 -167.84375 Z M 85.046875 -167.84375 "/></g></g><g transform="translate(847.780121, 581.624991)"><g><path d="M 89.953125 -125.21875 C 89.953125 -100.519531 94.003906 -81.84375 102.109375 -69.1875 C 110.222656 -56.539062 123.429688 -50.21875 141.734375 -50.21875 C 159.890625 -50.21875 172.945312 -56.503906 180.90625 -69.078125 C 188.863281 -81.648438 192.84375 -100.363281 192.84375 -125.21875 C 192.84375 -149.914062 188.828125 -168.441406 180.796875 -180.796875 C 172.765625 -193.148438 159.597656 -199.328125 141.296875 -199.328125 C 123.140625 -199.328125 110.039062 -193.1875 102 -180.90625 C 93.96875 -168.632812 89.953125 -150.070312 89.953125 -125.21875 Z M 262.484375 -125.21875 C 262.484375 -84.59375 251.769531 -52.820312 230.34375 -29.90625 C 208.914062 -6.988281 179.082031 4.46875 140.84375 4.46875 C 116.882812 4.46875 95.753906 -0.773438 77.453125 -11.265625 C 59.148438 -21.765625 45.085938 -36.832031 35.265625 -56.46875 C 25.441406 -76.113281 20.53125 -99.03125 20.53125 -125.21875 C 20.53125 -165.988281 31.171875 -197.679688 52.453125 -220.296875 C 73.734375 -242.921875 103.644531 -254.234375 142.1875 -254.234375 C 166.144531 -254.234375 187.273438 -249.023438 205.578125 -238.609375 C 223.878906 -228.191406 237.9375 -213.234375 247.75 -193.734375 C 257.570312 -174.242188 262.484375 -151.40625 262.484375 -125.21875 Z M 262.484375 -125.21875 "/></g></g><g transform="translate(1130.804767, 581.624991)"><g><path d="M 246.421875 0 L 18.296875 0 L 18.296875 -47.984375 L 100.21875 -130.796875 C 124.476562 -155.648438 140.328125 -172.875 147.765625 -182.46875 C 155.203125 -192.070312 160.554688 -200.960938 163.828125 -209.140625 C 167.109375 -217.328125 168.75 -225.8125 168.75 -234.59375 C 168.75 -247.6875 165.140625 -257.429688 157.921875 -263.828125 C 150.703125 -270.222656 141.066406 -273.421875 129.015625 -273.421875 C 116.367188 -273.421875 104.09375 -270.519531 92.1875 -264.71875 C 80.28125 -258.914062 67.851562 -250.660156 54.90625 -239.953125 L 17.40625 -284.359375 C 33.476562 -298.054688 46.796875 -307.726562 57.359375 -313.375 C 67.929688 -319.03125 79.460938 -323.382812 91.953125 -326.4375 C 104.453125 -329.488281 118.441406 -331.015625 133.921875 -331.015625 C 154.304688 -331.015625 172.3125 -327.289062 187.9375 -319.84375 C 203.5625 -312.40625 215.6875 -301.988281 224.3125 -288.59375 C 232.945312 -275.207031 237.265625 -259.882812 237.265625 -242.625 C 237.265625 -227.59375 234.625 -213.492188 229.34375 -200.328125 C 224.0625 -187.160156 215.875 -173.65625 204.78125 -159.8125 C 193.695312 -145.976562 174.171875 -126.265625 146.203125 -100.671875 L 104.234375 -61.15625 L 104.234375 -58.03125 L 246.421875 -58.03125 Z M 246.421875 0 "/></g></g></g></svg>